<?xml version="1.0"?>
<svg xmlns="http://www.w3.org/2000/svg" viewBox="0 0 50 50">
  <path fill="#ccc" d="M 45.875 2.3125 A 1.0001 1.0001 0 0 0 45 3.3125 L 45 6.25 C 43.792831 4.9095314 41.485822 3 38 3 C 32.488666 3 28 7.4886661 28 13 C 28 18.511334 32.488666 23 38 23 C 43.511334 23 48 18.511334 48 13 A 1.0001 1.0001 0 1 0 46 13 C 46 17.430666 42.430666 21 38 21 C 33.569334 21 30 17.430666 30 13 C 30 8.5693339 33.569334 5 38 5 C 41.239822 5 43.17405 7.0303537 43.90625 8 L 40.3125 8 A 1.0001 1.0001 0 1 0 40.3125 10 L 46 10 L 47 10 L 47 9 L 47 3.3125 A 1.0001 1.0001 0 0 0 45.875 2.3125 z M 3 15 L 3 47 L 5 47 L 5 15 L 3 15 z M 7 15 L 7 47 L 10 47 L 10 15 L 7 15 z M 12 15 L 12 47 L 20 47 L 20 15 L 12 15 z M 22 15 L 22 47 L 24 47 L 24 15 L 22 15 z M 26 15 L 26 47 L 29 47 L 29 20.90625 C 27.558 19.26725 26.5655 17.243 26.1875 15 L 26 15 z M 31 22.71875 L 31 47 L 33 47 L 33 23.90625 C 32.293 23.58025 31.625 23.16975 31 22.71875 z M 43 23.90625 C 42.361 24.20025 41.693 24.41475 41 24.59375 L 41 47 L 43 47 L 43 23.90625 z M 35 24.59375 L 35 47 L 39 47 L 39 24.9375 C 38.669 24.9655 38.338 25 38 25 C 36.963 25 35.961 24.84275 35 24.59375 z"/>
</svg>
