<svg xmlns="http://www.w3.org/2000/svg" xmlns:xlink="http://www.w3.org/1999/xlink" viewBox="0 0 302.2 368.84"><defs><style>.cls-1{isolation:isolate;}.cls-2{fill:#d6dae2;}.cls-10,.cls-11,.cls-12,.cls-2,.cls-3,.cls-4,.cls-7,.cls-9{fill-rule:evenodd;}.cls-3{fill:url(#linear-gradient);}.cls-4{fill:#5d6b79;opacity:0.2;}.cls-11,.cls-5{fill:#fff;}.cls-6,.cls-7{fill:#3e3e3e;}.cls-8,.cls-9{fill:#7472f6;}.cls-10{fill:#ededed;}.cls-12{fill:#444;}.cls-13{fill:#5c3fd8;}.cls-14{opacity:0.5;mix-blend-mode:screen;fill:url(#linear-gradient-2);}</style><linearGradient id="linear-gradient" x1="148.08" x2="148.08" y2="360.92" gradientUnits="userSpaceOnUse"><stop offset="0" stop-color="#f1f2f4"/><stop offset="1" stop-color="#f7fafd"/></linearGradient><linearGradient id="linear-gradient-2" x1="156.56" y1="44.1" x2="143.18" y2="57.48" gradientTransform="matrix(1, 0, 0, 1, -0.13, 0.11)" gradientUnits="userSpaceOnUse"><stop offset="0" stop-color="#9733ee"/><stop offset="1" stop-color="#00c6ff"/></linearGradient></defs><title>iphone-mockup</title><g class="cls-1"><g id="Depth_Grey_" data-name="Depth (Grey)" class="cls-1"><path id="Depth_Grey_2" data-name="Depth (Grey)" class="cls-2" d="M299.92,30.87C293.47,18.23,280.23,18.43,264.66,15,247.74,12,184.51.37,177.65.51c-8.1,0-16.17,4.32-19.75,7-8.12,6.11-11.53,15.09-16.81,24.16C133.86,45.84,18,272.4,12.3,283.61c-3.86,6.61-8,13.85-10.45,21.55C-3.4,321.86,2.94,334.91,15.4,339l85.37,25c10.45,3.26,23.31,7.68,35.1,2.62,12.57-5.41,17.63-15.43,25.65-30.72,16.29-31.07,46.8-102.45,130.07-265.61C296.39,60.82,306.81,44.38,299.92,30.87Z"/><path id="Face_Gradient_" data-name="Face (Gradient)" class="cls-3" d="M294.5,27.1c-4.9-9.67-17.65-9.6-29.72-12.25C246.93,11.7,183.27-.12,177.42,0c-22.11,0-30.87,21.74-36.09,30.69C134,45.05,21.42,264.93,16.58,274.56,11.66,283.65,6.2,292.92,2.37,302.8-2.74,316,.72,326.86,10.81,331.13c-1.05-.45,18.14,5.47,28.31,8.39l61.72,18c10.74,3.29,22.23,5.81,32.33-.16,9.11-5.39,14-13.61,18.81-22.86L285.36,63.33C289.22,55.49,300.28,38.49,294.5,27.1ZM152.68,323.69,15.19,286,144.68,33,282.5,58.76Z"/><path id="Button_Grey_" data-name="Button (Grey)" class="cls-2" d="M80.59,312.83c5.61,3.32,6.19,11.22,1.89,17.76S70.12,340.65,64,338.05c-6.23-2.65-7.88-10.88-3-18.3S74.85,309.44,80.59,312.83Z"/><path id="Sensor_Grey_" data-name="Sensor (Grey)" class="cls-2" d="M201.78,24.2a1.38,1.38,0,0,1,.21,2,1.85,1.85,0,0,1-2.11.84,1.33,1.33,0,0,1-.34-2.06A1.8,1.8,0,0,1,201.78,24.2Z"/><path id="Camera__Grey_" data-name="Camera_(Grey)" class="cls-2" d="M227.27,17.72a1.73,1.73,0,0,1,.27,2.53,2.33,2.33,0,0,1-2.66,1.06c-.9-.38-1.14-1.55-.44-2.61A2.25,2.25,0,0,1,227.27,17.72Z"/><path id="Speaker__Grey_" data-name="Speaker_(Grey)" class="cls-2" d="M209.69,29c-1-.19-1.08-1.51-.43-2.6.83-1.41,2.82-1,2.82-1l19.11,3.43c1.14.33.89,1.6.27,2.53a2.4,2.4,0,0,1-2.66,1.06Z"/><path id="Dashs_Dark_Grey_" data-name="Dashs (Dark Grey)" class="cls-4" d="M151.05,336l.9-1.63a13.42,13.42,0,0,1,6.61,6.7l-.71,1.63S155.42,337.79,151.05,336Z"/><path id="Dashs_Dark_Grey_2" data-name="Dashs (Dark Grey)" class="cls-4" d="M289.66,55.13l.86-1.54a12.84,12.84,0,0,1,6.33,6.31l-.69,1.53S293.84,56.8,289.66,55.13Z"/></g><g id="New_UI" data-name="New UI"><polygon id="BG" class="cls-5" points="152.33 322.86 16.39 285.2 145.3 33.77 281.35 59.58 152.33 322.86"/><g id="Circle"><path class="cls-6" d="M65.35,222.06c-1.45-.37-2-2-1.16-3.56a4,4,0,0,1,4.11-2.22c1.45.36,2,2,1.16,3.55A4,4,0,0,1,65.35,222.06Zm2.55-5a2.9,2.9,0,0,0-3,1.63c-.59,1.17-.21,2.34.85,2.61a2.89,2.89,0,0,0,3-1.64C69.35,218.48,69,217.31,67.9,217.05Z"/></g><path id="selected" class="cls-7" d="M67.61,217.62c.77.2,1,1,.62,1.9A2.13,2.13,0,0,1,66,220.71c-.78-.2-1.06-1.05-.62-1.9A2.11,2.11,0,0,1,67.61,217.62Z"/><path class="cls-6" d="M72.21,223l-1.93-.49,2.47-4.86,1.79.45a.85.85,0,0,1,.65.6,1.29,1.29,0,0,1-.12,1,1.72,1.72,0,0,1-1,.91.91.91,0,0,1,.28.59,1.45,1.45,0,0,1-.16.76,2,2,0,0,1-.85.87A1.47,1.47,0,0,1,72.21,223Zm2.1-4.44L73,218.25l-.86,1.69,1.34.34a.94.94,0,0,0,.66-.11,1.29,1.29,0,0,0,.52-.54.88.88,0,0,0,.09-.66A.53.53,0,0,0,74.31,218.59Zm-1.87,4a.91.91,0,0,0,.7-.12,1.32,1.32,0,0,0,.55-.57.94.94,0,0,0,.1-.7.57.57,0,0,0-.43-.4l-1.49-.38L71,222.2Z"/><path class="cls-6" d="M77,223.74a2,2,0,0,1-1.45.23,1.22,1.22,0,0,1-.92-.83,1.78,1.78,0,0,1,.17-1.42,2.79,2.79,0,0,1,1.15-1.18,2,2,0,0,1,1.45-.22,1.19,1.19,0,0,1,.92.82,1.78,1.78,0,0,1-.17,1.42A2.68,2.68,0,0,1,77,223.74Zm-1.91-.84a.9.9,0,0,0,.69.62,1.49,1.49,0,0,0,1.09-.17,2.11,2.11,0,0,0,.86-.89,1.39,1.39,0,0,0,.14-1.07.92.92,0,0,0-.69-.63,1.47,1.47,0,0,0-1.1.18,2.06,2.06,0,0,0-.86.89A1.38,1.38,0,0,0,75.07,222.9Z"/><path class="cls-6" d="M81.21,221.88l-.92-.23-1.07,2.11a.69.69,0,0,0-.11.43.3.3,0,0,0,.25.2l.51.12-.21.41a1.3,1.3,0,0,1-1-.36c-.15-.2-.12-.5.09-.91l1.07-2.11-.67-.17.23-.44.67.16.42-.83.49,0-.49,1,.92.23Z"/><path class="cls-6" d="M83.76,221.92a.9.9,0,0,1,.72.62,1.57,1.57,0,0,1-.19,1.13l-1.09,2.14-.42-.1,1.09-2.15a1.13,1.13,0,0,0,.14-.78.69.69,0,0,0-.54-.43,1.17,1.17,0,0,0-.88.14,2.05,2.05,0,0,0-.78.91l-.93,1.82-.43-.1,2.48-4.88.43.1-1,1.94A1.55,1.55,0,0,1,83.76,221.92Z"/><path class="cls-6" d="M78.74,205.93l.44.11-2.47,4.85-.44-.11Z"/><path class="cls-6" d="M80.91,207.94a.88.88,0,0,1,.71.61,1.55,1.55,0,0,1-.19,1.12l-1.09,2.13-.42-.11L81,209.56a1.07,1.07,0,0,0,.14-.78.68.68,0,0,0-.53-.42,1.21,1.21,0,0,0-.88.14,2.08,2.08,0,0,0-.78.9L78,211.22l-.42-.1,1.77-3.47.42.11-.28.54A1.54,1.54,0,0,1,80.91,207.94Z"/><path class="cls-6" d="M82.18,210.09l.23-.44,2.29.56-.23.45Z"/><path class="cls-6" d="M87.84,209.65a1.18,1.18,0,0,1,.89.82,1.76,1.76,0,0,1-.17,1.41,2.76,2.76,0,0,1-1.14,1.18,2,2,0,0,1-1.43.24,1.09,1.09,0,0,1-.9-1.09l-1,2.07-.42-.1,2.47-4.87.42.11-.35.68A1.89,1.89,0,0,1,87.84,209.65Zm-1.66,3.19a1.51,1.51,0,0,0,1.1-.17,2.11,2.11,0,0,0,.86-.89,1.38,1.38,0,0,0,.13-1.07.91.91,0,0,0-.69-.62,1.47,1.47,0,0,0-1.1.18,2.09,2.09,0,0,0-.86.88,1.38,1.38,0,0,0-.12,1.07A.87.87,0,0,0,86.18,212.84Z"/><path class="cls-6" d="M90,210.78a1.93,1.93,0,0,1,1.45-.22,1.08,1.08,0,0,1,.88.83,2,2,0,0,1-.21,1.4L92,213l-2.8-.69a1.18,1.18,0,0,0,0,.94,1,1,0,0,0,.71.52,1.32,1.32,0,0,0,.71,0,1.49,1.49,0,0,0,.62-.33l.25.33a2.38,2.38,0,0,1-.88.45,2,2,0,0,1-.93,0,1.24,1.24,0,0,1-1-.83,1.78,1.78,0,0,1,.19-1.41A2.74,2.74,0,0,1,90,210.78Zm1.84.72a.84.84,0,0,0-.64-.5,1.37,1.37,0,0,0-1,.12,2.1,2.1,0,0,0-.83.74l2.39.59A1.22,1.22,0,0,0,91.88,211.5Z"/><path class="cls-6" d="M95.35,211.55l-.22.44a1.26,1.26,0,0,0-.87.1,1.73,1.73,0,0,0-.73.81l-1,1.93-.42-.1,1.76-3.48.43.1-.3.58A1.4,1.4,0,0,1,95.35,211.55Z"/><path class="cls-6" d="M96.3,212.41a.64.64,0,0,0-.39.35.39.39,0,0,0,0,.43,1.08,1.08,0,0,0,.36.34c.16.09.31.2.46.3a.78.78,0,0,1,.31.43.87.87,0,0,1-.12.67,1.24,1.24,0,0,1-.67.6,1.41,1.41,0,0,1-.95.08,1.17,1.17,0,0,1-.7-.42,1,1,0,0,1-.16-.7l.48-.14a.67.67,0,0,0,.11.51.79.79,0,0,0,.47.3,1.07,1.07,0,0,0,.59,0,.65.65,0,0,0,.42-.34.43.43,0,0,0,0-.45,1,1,0,0,0-.36-.33l-.46-.31a.74.74,0,0,1-.31-.43.88.88,0,0,1,.11-.66,1.34,1.34,0,0,1,.66-.6,1.3,1.3,0,0,1,.88-.1,1.1,1.1,0,0,1,.64.37,1,1,0,0,1,.17.63l-.47.14c0-.36-.13-.59-.52-.69A1,1,0,0,0,96.3,212.41Z"/><path class="cls-6" d="M100,216.2a2,2,0,0,1-1.46.23,1.25,1.25,0,0,1-.93-.83,1.78,1.78,0,0,1,.16-1.42A2.68,2.68,0,0,1,99,213a2,2,0,0,1,1.47-.23,1.22,1.22,0,0,1,.93.82,1.81,1.81,0,0,1-.17,1.43A2.73,2.73,0,0,1,100,216.2Zm-1.93-.85a.92.92,0,0,0,.69.63,1.49,1.49,0,0,0,1.11-.18,2.05,2.05,0,0,0,.86-.89,1.38,1.38,0,0,0,.13-1.07.92.92,0,0,0-.7-.63,1.47,1.47,0,0,0-1.1.18,2.05,2.05,0,0,0-.86.89A1.34,1.34,0,0,0,98.1,215.35Z"/><path class="cls-6" d="M104.36,213.74a.92.92,0,0,1,.73.62,1.57,1.57,0,0,1-.19,1.13l-1.09,2.14-.42-.1,1.08-2.15a1.07,1.07,0,0,0,.14-.78.7.7,0,0,0-.54-.43,1.24,1.24,0,0,0-.89.14,2.13,2.13,0,0,0-.79.91l-.92,1.83L101,217l1.77-3.5.42.11-.27.54A1.56,1.56,0,0,1,104.36,213.74Z"/><path class="cls-6" d="M110.55,218.57a2.73,2.73,0,0,1-2,.33,1.69,1.69,0,0,1-1.29-1.15,2.5,2.5,0,0,1,.23-2,3.69,3.69,0,0,1,1.58-1.62,2.78,2.78,0,0,1,2-.33,1.69,1.69,0,0,1,1.29,1.15,2.47,2.47,0,0,1-.22,2A3.68,3.68,0,0,1,110.55,218.57Zm-2.84-1.08a1.35,1.35,0,0,0,1.05.93,2.17,2.17,0,0,0,1.64-.26,3,3,0,0,0,1.28-1.33,2,2,0,0,0,.2-1.59,1.37,1.37,0,0,0-1-.93,2.17,2.17,0,0,0-1.64.26,3,3,0,0,0-1.28,1.33A2,2,0,0,0,107.71,217.49Z"/><path class="cls-6" d="M114.77,216.32a.91.91,0,0,1,.73.62,1.51,1.51,0,0,1-.18,1.13l-1.09,2.16-.43-.11,1.09-2.15a1,1,0,0,0,.13-.79.66.66,0,0,0-.54-.43,1.19,1.19,0,0,0-.89.14,2,2,0,0,0-.79.91l-.93,1.84-.43-.11,1.77-3.5.43.1-.28.55A1.59,1.59,0,0,1,114.77,216.32Z"/><path class="cls-6" d="M115.05,220.43l2.57-5.12.43.1-2.57,5.13Z"/><path class="cls-6" d="M120.6,217.86l.45.11-3.32,3.49a2.74,2.74,0,0,1-1,.69,1.27,1.27,0,0,1-.91.07l.22-.44q.55.22,1.26-.51l.2-.2.31-3.89.46.11-.26,3.25Z"/><g id="Circle-2" data-name="Circle"><path class="cls-6" d="M71.34,210.31c-1.45-.36-2-1.94-1.16-3.53a4,4,0,0,1,4.1-2.23c1.45.36,2,1.95,1.17,3.54A4,4,0,0,1,71.34,210.31Zm2.55-5a2.91,2.91,0,0,0-3,1.63c-.59,1.17-.21,2.33.85,2.59a2.89,2.89,0,0,0,3-1.63C75.34,206.75,75,205.58,73.89,205.32Z"/></g><path class="cls-6" d="M86.24,199.32a2.8,2.8,0,0,1-2,.33A1.67,1.67,0,0,1,83,198.52a2.44,2.44,0,0,1,.24-1.94,3.65,3.65,0,0,1,1.56-1.6,2.7,2.7,0,0,1,2-.33,1.64,1.64,0,0,1,1.27,1.12,2.45,2.45,0,0,1-.24,1.93A3.67,3.67,0,0,1,86.24,199.32Zm-2.78-1.06a1.29,1.29,0,0,0,1,.91,2.22,2.22,0,0,0,1.62-.26,3.09,3.09,0,0,0,1.27-1.31,2.08,2.08,0,0,0,.2-1.57,1.35,1.35,0,0,0-1-.92,2.28,2.28,0,0,0-1.62.27,3.12,3.12,0,0,0-1.26,1.31A2,2,0,0,0,83.46,198.26Z"/><path class="cls-6" d="M90.4,197.08a.88.88,0,0,1,.72.6,1.54,1.54,0,0,1-.19,1.12l-1.08,2.12-.42-.1,1.08-2.12a1.07,1.07,0,0,0,.14-.78.66.66,0,0,0-.53-.42,1.21,1.21,0,0,0-.88.14,2.08,2.08,0,0,0-.78.9l-.93,1.82-.42-.11,1.76-3.45.42.1-.27.54A1.53,1.53,0,0,1,90.4,197.08Z"/><path class="cls-6" d="M90.65,201.12l2.56-5.05.43.1-2.57,5.05Z"/><path class="cls-6" d="M94.41,197.32a.22.22,0,0,1-.17-.15.31.31,0,0,1,0-.26.43.43,0,0,1,.21-.21.37.37,0,0,1,.27,0,.2.2,0,0,1,.16.15.31.31,0,0,1,0,.26.43.43,0,0,1-.21.21A.35.35,0,0,1,94.41,197.32Zm-2.35,4.15L93.82,198l.43.11-1.76,3.46Z"/><path class="cls-6" d="M96.78,198.63a.89.89,0,0,1,.72.61,1.55,1.55,0,0,1-.19,1.12l-1.08,2.13-.42-.11,1.08-2.13a1,1,0,0,0,.14-.77.68.68,0,0,0-.54-.42,1.17,1.17,0,0,0-.88.14,2,2,0,0,0-.78.9l-.92,1.82-.43-.11,1.76-3.46.42.1-.27.54A1.57,1.57,0,0,1,96.78,198.63Z"/><path class="cls-6" d="M98.84,199.72a2,2,0,0,1,1.46-.23,1.09,1.09,0,0,1,.89.82,2,2,0,0,1-.22,1.4,1.28,1.28,0,0,1-.12.21L98,201.24a1.14,1.14,0,0,0,0,.94,1,1,0,0,0,.7.51,1.35,1.35,0,0,0,.72,0,1.46,1.46,0,0,0,.61-.33l.26.33a2.54,2.54,0,0,1-.88.45,2,2,0,0,1-.94,0,1.28,1.28,0,0,1-1-.82,1.78,1.78,0,0,1,.19-1.41A2.75,2.75,0,0,1,98.84,199.72Zm1.86.71a.91.91,0,0,0-.65-.51,1.43,1.43,0,0,0-1,.13,2.1,2.1,0,0,0-.83.74l2.39.59A1.23,1.23,0,0,0,100.7,200.43Z"/><path class="cls-6" d="M106.85,204.35a2.78,2.78,0,0,1-2,.33,1.68,1.68,0,0,1-1.28-1.14,2.47,2.47,0,0,1,.23-1.94,3.72,3.72,0,0,1,1.57-1.62,2.78,2.78,0,0,1,2-.33,1.67,1.67,0,0,1,1.28,1.13,2.45,2.45,0,0,1-.23,1.95A3.72,3.72,0,0,1,106.85,204.35ZM104,203.29a1.36,1.36,0,0,0,1,.92,2.22,2.22,0,0,0,1.64-.27,3.05,3.05,0,0,0,1.27-1.32,2,2,0,0,0,.19-1.58,1.33,1.33,0,0,0-1-.92,2.22,2.22,0,0,0-1.64.27,3.05,3.05,0,0,0-1.27,1.32A2,2,0,0,0,104,203.29Z"/><path class="cls-6" d="M111,202.1a.93.93,0,0,1,.73.61,1.57,1.57,0,0,1-.19,1.13L110.5,206l-.42-.11,1.08-2.14a1.06,1.06,0,0,0,.13-.78.65.65,0,0,0-.54-.42,1.24,1.24,0,0,0-.89.14,2.05,2.05,0,0,0-.78.91l-.92,1.82-.43-.1,1.76-3.48.43.1-.28.55A1.57,1.57,0,0,1,111,202.1Z"/><path class="cls-6" d="M111.31,206.18l2.57-5.09.43.1-2.57,5.09Z"/><path class="cls-6" d="M116.83,203.61l.46.11L114,207.19a2.91,2.91,0,0,1-.94.68,1.28,1.28,0,0,1-.91.08l.22-.44c.37.14.78,0,1.25-.5l.2-.2.32-3.86.45.11-.26,3.21Z"/><g id="Circle-3" data-name="Circle"><path class="cls-6" d="M77.31,198.61c-1.45-.36-2-1.93-1.16-3.51a4,4,0,0,1,4.09-2.23c1.45.35,2,1.93,1.17,3.51A4,4,0,0,1,77.31,198.61Zm2.54-5a2.92,2.92,0,0,0-3,1.64c-.6,1.16-.21,2.31.85,2.57a2.91,2.91,0,0,0,3-1.63C81.3,195.05,80.92,193.89,79.85,193.63Z"/></g><g id="Question"><path class="cls-8" d="M101.76,146l.21-.41,3.24-1.82a4.37,4.37,0,0,0,1.79-1.51,1.2,1.2,0,0,0,.13-1,.92.92,0,0,0-.71-.55,2,2,0,0,0-1.82.61l-.24-.31a3,3,0,0,1,1.13-.68,2.09,2.09,0,0,1,1.16-.06,1.25,1.25,0,0,1,.94.73,1.61,1.61,0,0,1-.15,1.39,2.91,2.91,0,0,1-.8.94,9.15,9.15,0,0,1-1.3.86l-2.74,1.54,2.94.67-.23.44Z"/><path class="cls-8" d="M106.76,147.14a.39.39,0,0,1-.31.05.25.25,0,0,1-.2-.17.4.4,0,0,1,0-.3.6.6,0,0,1,.25-.25.46.46,0,0,1,.32-.06.27.27,0,0,1,.2.17.39.39,0,0,1,0,.31A.55.55,0,0,1,106.76,147.14Z"/><path class="cls-8" d="M114,148.82l.23-1.68-2.85-.64-1.33,1.42-.46-.1,5.3-5.59.46.11-.9,6.58Zm-2.23-2.72,2.53.57.53-3.82Z"/><path class="cls-8" d="M117.25,145.65a1.89,1.89,0,0,1,1.83-.61l-.22.42a1.66,1.66,0,0,0-1.16.17,2.34,2.34,0,0,0-1,1.1l-1.23,2.42-.41-.1,2.21-4.35.41.09Z"/><path class="cls-8" d="M121.64,145.58a1.34,1.34,0,0,1,1.11,1,2.38,2.38,0,0,1-.26,1.73.64.64,0,0,1-.06.11l-.05.1-3.69-.83a1.61,1.61,0,0,0,0,1.3,1.27,1.27,0,0,0,.94.72,2,2,0,0,0,1,0,2.25,2.25,0,0,0,.85-.45l.24.31a2.79,2.79,0,0,1-1.08.56,2.44,2.44,0,0,1-1.2,0,1.53,1.53,0,0,1-1.21-1,2.18,2.18,0,0,1,.23-1.77,3.5,3.5,0,0,1,1.41-1.49A2.56,2.56,0,0,1,121.64,145.58Zm-.21.42a2,2,0,0,0-1.39.2,2.72,2.72,0,0,0-1.14,1.07l3.28.74a1.71,1.71,0,0,0,.1-1.33A1.14,1.14,0,0,0,121.43,146Z"/><path class="cls-8" d="M129.86,147.54l.44.1L126.11,152a3.71,3.71,0,0,1-1.18.86,1.56,1.56,0,0,1-1.12.12l.21-.42a1.07,1.07,0,0,0,.83-.08,3,3,0,0,0,.91-.66l.21-.22.37-4.87.44.1-.32,4.26Z"/><path class="cls-8" d="M130.75,152.72a1.53,1.53,0,0,1-1.19-1,2.15,2.15,0,0,1,.19-1.76,3.4,3.4,0,0,1,1.45-1.48,2.63,2.63,0,0,1,1.86-.32,1.53,1.53,0,0,1,1.19,1,2.15,2.15,0,0,1-.19,1.76,3.35,3.35,0,0,1-1.45,1.48A2.63,2.63,0,0,1,130.75,152.72Zm-.74-1.24a1.23,1.23,0,0,0,1,.82,2.07,2.07,0,0,0,1.5-.27,2.71,2.71,0,0,0,1.17-1.2,1.83,1.83,0,0,0,.17-1.44,1.21,1.21,0,0,0-1-.82,2.09,2.09,0,0,0-1.51.27,2.71,2.71,0,0,0-1.17,1.2A1.78,1.78,0,0,0,130,151.48Z"/><path class="cls-8" d="M139.1,149.62l.41.09-2.21,4.39-.41-.1.42-.83a2.12,2.12,0,0,1-1.94.6,1.17,1.17,0,0,1-.93-.75,1.82,1.82,0,0,1,.22-1.37l1.37-2.72.42.09-1.38,2.73a1.41,1.41,0,0,0-.17,1,.87.87,0,0,0,.71.56,1.68,1.68,0,0,0,1.26-.21,2.72,2.72,0,0,0,1.06-1.21Z"/><path class="cls-8" d="M145.19,150.88a1.53,1.53,0,0,1,1.18,1,2.17,2.17,0,0,1-.19,1.77,3.42,3.42,0,0,1-1.45,1.49,2.56,2.56,0,0,1-1.85.32,1.53,1.53,0,0,1-.9-.54,1.48,1.48,0,0,1-.31-1l-1.4,2.78-.42-.1,3.1-6.14.41.09-.51,1A2.91,2.91,0,0,1,144,151,2.35,2.35,0,0,1,145.19,150.88Zm-3.09,3.34a1.23,1.23,0,0,0,1,.82,2.11,2.11,0,0,0,1.52-.26,2.79,2.79,0,0,0,1.17-1.21,1.74,1.74,0,0,0,.16-1.44,1.24,1.24,0,0,0-1-.83,2.16,2.16,0,0,0-1.52.26,2.79,2.79,0,0,0-1.17,1.21A1.81,1.81,0,0,0,142.1,154.22Z"/><path class="cls-8" d="M148.33,152.66a1.91,1.91,0,0,1,1.85-.61l-.21.42a1.68,1.68,0,0,0-1.19.18,2.41,2.41,0,0,0-1,1.1l-1.23,2.45-.41-.1,2.21-4.4.41.1Z"/><path class="cls-8" d="M150.52,157.2a1.57,1.57,0,0,1-1.22-1,2.16,2.16,0,0,1,.19-1.78,3.37,3.37,0,0,1,1.45-1.49,2.65,2.65,0,0,1,1.89-.31,1.54,1.54,0,0,1,1.2,1,2.19,2.19,0,0,1-.18,1.78,3.44,3.44,0,0,1-1.46,1.49A2.65,2.65,0,0,1,150.52,157.2Zm-.77-1.25a1.25,1.25,0,0,0,1,.83,2.16,2.16,0,0,0,1.52-.26,2.81,2.81,0,0,0,1.17-1.22,1.74,1.74,0,0,0,.16-1.44,1.22,1.22,0,0,0-1-.83,2.16,2.16,0,0,0-1.52.26,2.78,2.78,0,0,0-1.18,1.22A1.82,1.82,0,0,0,149.75,156Z"/><path class="cls-8" d="M155.58,158.35a1.59,1.59,0,0,1-1.23-1,2.23,2.23,0,0,1,.2-1.79,3.37,3.37,0,0,1,1.45-1.49,2.62,2.62,0,0,1,1.89-.31,1.62,1.62,0,0,1,1,.55,1.34,1.34,0,0,1,.3,1l-.44.13a1.12,1.12,0,0,0-.25-.8,1.38,1.38,0,0,0-.77-.45,2.12,2.12,0,0,0-1.53.26,2.78,2.78,0,0,0-1.18,1.22,1.81,1.81,0,0,0-.16,1.45,1.27,1.27,0,0,0,1,.83,2,2,0,0,0,1,0,2.62,2.62,0,0,0,.94-.54l.24.3a3.1,3.1,0,0,1-1.16.65A2.46,2.46,0,0,1,155.58,158.35Z"/><path class="cls-8" d="M162.58,154.8a1.41,1.41,0,0,1,1.15,1,2.4,2.4,0,0,1-.25,1.76l0,.11-.06.1-3.79-.85a1.6,1.6,0,0,0,0,1.32,1.31,1.31,0,0,0,1,.73,1.91,1.91,0,0,0,1,0,2.11,2.11,0,0,0,.86-.46l.26.32a3,3,0,0,1-1.1.56,2.44,2.44,0,0,1-1.23,0,1.6,1.6,0,0,1-1.25-1,2.27,2.27,0,0,1,.21-1.8,3.48,3.48,0,0,1,1.43-1.51A2.62,2.62,0,0,1,162.58,154.8Zm-.21.43a2,2,0,0,0-1.42.2,2.74,2.74,0,0,0-1.15,1.09l3.36.76a1.73,1.73,0,0,0,.08-1.36A1.15,1.15,0,0,0,162.37,155.23Z"/><path class="cls-8" d="M165.45,156.85a.53.53,0,0,0,0,.57,1.51,1.51,0,0,0,.5.42l.65.38a1.08,1.08,0,0,1,.44.53,1,1,0,0,1-.1.78,1.76,1.76,0,0,1-.87.81,2,2,0,0,1-1.26.11,1.51,1.51,0,0,1-.88-.5,1.11,1.11,0,0,1-.22-.85l.47-.14a.85.85,0,0,0,.15.67,1.17,1.17,0,0,0,.69.39,1.54,1.54,0,0,0,.88,0,1.05,1.05,0,0,0,.62-.55.55.55,0,0,0,0-.58,1.3,1.3,0,0,0-.49-.43c-.22-.12-.44-.24-.65-.38a1,1,0,0,1-.44-.52,1,1,0,0,1,.09-.77,1.75,1.75,0,0,1,.85-.8,1.78,1.78,0,0,1,1.2-.13,1.23,1.23,0,0,1,.76.44,1.06,1.06,0,0,1,.23.76l-.46.14a.77.77,0,0,0-.17-.6,1.07,1.07,0,0,0-.57-.32,1.39,1.39,0,0,0-.83.07A1.07,1.07,0,0,0,165.45,156.85Z"/><path class="cls-8" d="M169.46,157.75a.57.57,0,0,0,0,.58,1.41,1.41,0,0,0,.5.42c.22.12.43.25.64.38a1.05,1.05,0,0,1,.45.53,1,1,0,0,1-.1.78,1.72,1.72,0,0,1-.87.81,2,2,0,0,1-1.27.11,1.49,1.49,0,0,1-.88-.5,1.11,1.11,0,0,1-.22-.85l.47-.14a.81.81,0,0,0,.16.67,1.11,1.11,0,0,0,.69.39,1.54,1.54,0,0,0,.88,0,1.08,1.08,0,0,0,.62-.55.55.55,0,0,0,0-.58,1.34,1.34,0,0,0-.5-.43l-.65-.38a1.11,1.11,0,0,1-.44-.52,1,1,0,0,1,.09-.77,1.75,1.75,0,0,1,.85-.8,1.81,1.81,0,0,1,1.21-.14,1.33,1.33,0,0,1,.76.44,1.14,1.14,0,0,1,.23.77l-.46.14a.77.77,0,0,0-.17-.6,1,1,0,0,0-.57-.32,1.38,1.38,0,0,0-.83.06A1.14,1.14,0,0,0,169.46,157.75Z"/><path class="cls-8" d="M174.81,156.36a.36.36,0,0,1-.28,0,.26.26,0,0,1-.19-.15.35.35,0,0,1,0-.28.47.47,0,0,1,.22-.22.44.44,0,0,1,.29,0,.23.23,0,0,1,.18.16.3.3,0,0,1,0,.26A.51.51,0,0,1,174.81,156.36Zm-3.24,5.51,2.21-4.43.42.09L172,162Z"/><path class="cls-8" d="M177.59,158.19a1.17,1.17,0,0,1,.95.75,1.76,1.76,0,0,1-.2,1.39L177,163.1l-.43-.1,1.37-2.77a1.4,1.4,0,0,0,.17-1,.88.88,0,0,0-.74-.57,1.73,1.73,0,0,0-1.28.21A2.71,2.71,0,0,0,175,160l-1.17,2.34-.42-.09,2.21-4.44.42.09-.42.85A2.13,2.13,0,0,1,177.59,158.19Z"/><path class="cls-8" d="M184.14,159.77l.42.1-2.11,4.23a2.9,2.9,0,0,1-1.36,1.4,2.64,2.64,0,0,1-1.78.22,2.06,2.06,0,0,1-1.1-.57,1.35,1.35,0,0,1-.37-1l.49-.14c0,.63.38,1.05,1.19,1.23a2.09,2.09,0,0,0,1.46-.17A2.37,2.37,0,0,0,182,164l.41-.82a3.1,3.1,0,0,1-1.15.66,2.35,2.35,0,0,1-1.23.06,1.58,1.58,0,0,1-1.22-1,2.22,2.22,0,0,1,.18-1.79,3.54,3.54,0,0,1,1.46-1.51,2.71,2.71,0,0,1,1.89-.32,1.62,1.62,0,0,1,.93.55,1.57,1.57,0,0,1,.32,1Zm-4.84,2.88a1.3,1.3,0,0,0,1,.84,2.16,2.16,0,0,0,1.54-.27A2.8,2.8,0,0,0,183,162a1.85,1.85,0,0,0,.15-1.47,1.28,1.28,0,0,0-1-.83,2.13,2.13,0,0,0-1.55.26,2.83,2.83,0,0,0-1.18,1.22A1.77,1.77,0,0,0,179.3,162.65Z"/><path class="cls-8" d="M101.12,152.56a1.51,1.51,0,0,1,1.15,1,2.19,2.19,0,0,1-.22,1.75,3.41,3.41,0,0,1-1.43,1.48,2.53,2.53,0,0,1-1.82.31,1.41,1.41,0,0,1-1.17-1.5l-1.4,2.75-.4-.1,3.1-6.08.41.09-.52,1a3.1,3.1,0,0,1,1.12-.65A2.38,2.38,0,0,1,101.12,152.56Zm-3.07,3.3a1.2,1.2,0,0,0,.94.82,2.08,2.08,0,0,0,1.49-.26,2.71,2.71,0,0,0,1.17-1.2,1.81,1.81,0,0,0,.17-1.43,1.22,1.22,0,0,0-.94-.82,2,2,0,0,0-1.49.27,2.77,2.77,0,0,0-1.16,1.19A1.82,1.82,0,0,0,98.05,155.86Z"/><path class="cls-8" d="M107.77,154.19l.41.1L106,158.65l-.41-.1.5-1a3,3,0,0,1-1.12.63,2.13,2.13,0,0,1-1.17.05,1.48,1.48,0,0,1-1.15-1,2.24,2.24,0,0,1,.21-1.76,3.35,3.35,0,0,1,1.44-1.47,2.52,2.52,0,0,1,1.81-.32,1.53,1.53,0,0,1,.89.52,1.6,1.6,0,0,1,.31,1ZM103.06,157a1.2,1.2,0,0,0,.94.82,2,2,0,0,0,1.49-.26,2.77,2.77,0,0,0,1.17-1.2,1.81,1.81,0,0,0,.17-1.43,1.2,1.2,0,0,0-.94-.82,2.09,2.09,0,0,0-1.49.26,2.94,2.94,0,0,0-1.17,1.2A1.81,1.81,0,0,0,103.06,157Z"/><path class="cls-8" d="M112.47,155.27l.44.1-4.18,4.36a3.78,3.78,0,0,1-1.19.87,1.55,1.55,0,0,1-1.1.11l.2-.42a1.11,1.11,0,0,0,.83-.07,3.09,3.09,0,0,0,.9-.67l.21-.21.39-4.87.44.1-.33,4.26Z"/><path class="cls-8" d="M118.14,156.46a1.06,1.06,0,0,1,.85.69,1.8,1.8,0,0,1-.23,1.35l-1.41,2.77-.4-.09,1.4-2.78a1.32,1.32,0,0,0,.18-1,.74.74,0,0,0-.61-.51,1.39,1.39,0,0,0-1.09.2,2.57,2.57,0,0,0-1,1.12l-1.24,2.45-.41-.1,1.41-2.77a1.5,1.5,0,0,0,.2-1,.76.76,0,0,0-.6-.51,1.52,1.52,0,0,0-1.1.2,2.61,2.61,0,0,0-1,1.12L111.93,160l-.41-.09,2.22-4.37.4.09-.38.75a1.9,1.9,0,0,1,1.74-.54,1,1,0,0,1,.67.41,1.07,1.07,0,0,1,.15.77,2.25,2.25,0,0,1,.92-.54A1.73,1.73,0,0,1,118.14,156.46Z"/><path class="cls-8" d="M122.72,157.51a1.39,1.39,0,0,1,1.12,1,2.49,2.49,0,0,1-.26,1.75.64.64,0,0,1-.06.1l-.06.11-3.7-.86a1.65,1.65,0,0,0-.05,1.32,1.27,1.27,0,0,0,1,.72,1.88,1.88,0,0,0,1,0,2.25,2.25,0,0,0,.85-.45l.25.31a2.9,2.9,0,0,1-1.09.56,2.56,2.56,0,0,1-1.2,0,1.55,1.55,0,0,1-1.22-1,2.2,2.2,0,0,1,.23-1.78,3.44,3.44,0,0,1,1.42-1.5A2.55,2.55,0,0,1,122.72,157.51Zm-.21.42a2,2,0,0,0-1.4.2A2.92,2.92,0,0,0,120,159.2l3.29.76a1.69,1.69,0,0,0,.1-1.34A1.12,1.12,0,0,0,122.51,157.93Z"/><path class="cls-8" d="M127.75,158.66a1.14,1.14,0,0,1,.92.74,1.84,1.84,0,0,1-.22,1.38l-1.38,2.73-.42-.1,1.38-2.73a1.38,1.38,0,0,0,.18-1,.86.86,0,0,0-.71-.57,1.78,1.78,0,0,0-1.26.21,2.78,2.78,0,0,0-1.06,1.21L124,162.81l-.41-.1,2.22-4.38.41.09-.42.83A2.08,2.08,0,0,1,127.75,158.66Z"/><path class="cls-8" d="M132.35,160.3l-1.22-.28-1.44,2.86a.92.92,0,0,0-.15.57.41.41,0,0,0,.31.28,3.17,3.17,0,0,0,.7.14l-.2.4a1.61,1.61,0,0,1-1.17-.41q-.28-.35.09-1.08l1.44-2.85-.91-.21.22-.43.91.2.55-1.09.49,0-.62,1.23,1.22.28Z"/><path class="cls-8" d="M133.39,161.34a.53.53,0,0,0,0,.57,1.34,1.34,0,0,0,.48.42c.22.12.43.25.64.38a1.06,1.06,0,0,1,.42.52.94.94,0,0,1-.1.78,1.74,1.74,0,0,1-.86.81,2,2,0,0,1-1.25.1,1.44,1.44,0,0,1-.86-.5,1.08,1.08,0,0,1-.21-.84l.46-.13a.83.83,0,0,0,.15.66,1.11,1.11,0,0,0,.68.39,1.51,1.51,0,0,0,.87,0,1.11,1.11,0,0,0,.61-.54.55.55,0,0,0,0-.58,1.2,1.2,0,0,0-.48-.43c-.22-.12-.43-.25-.63-.38a1,1,0,0,1-.43-.52.89.89,0,0,1,.1-.76,1.7,1.7,0,0,1,.83-.8,1.84,1.84,0,0,1,1.2-.13,1.26,1.26,0,0,1,.74.44,1.1,1.1,0,0,1,.21.76l-.45.13a.75.75,0,0,0-.16-.59,1,1,0,0,0-.56-.32,1.32,1.32,0,0,0-.81.07A1,1,0,0,0,133.39,161.34Z"/><path class="cls-8" d="M139.42,166.46a1.57,1.57,0,0,1-1.21-1,2.2,2.2,0,0,1,.19-1.78,3.44,3.44,0,0,1,1.46-1.49,2.67,2.67,0,0,1,1.88-.31,1.57,1.57,0,0,1,1.2,1,2.2,2.2,0,0,1-.19,1.78,3.34,3.34,0,0,1-1.46,1.49A2.6,2.6,0,0,1,139.42,166.46Zm-.76-1.25a1.25,1.25,0,0,0,1,.83,2.11,2.11,0,0,0,1.52-.26,2.84,2.84,0,0,0,1.18-1.22,1.82,1.82,0,0,0,.16-1.44,1.25,1.25,0,0,0-1-.84,2.12,2.12,0,0,0-1.52.27,2.81,2.81,0,0,0-1.18,1.21A1.85,1.85,0,0,0,138.66,165.21Z"/><path class="cls-8" d="M146.79,163a1.15,1.15,0,0,1,.93.75,1.79,1.79,0,0,1-.21,1.38l-1.38,2.75-.42-.09,1.38-2.75a1.48,1.48,0,0,0,.17-1.06.88.88,0,0,0-.72-.57,1.8,1.8,0,0,0-1.27.21,2.75,2.75,0,0,0-1.06,1.22L143,167.19l-.41-.1,2.22-4.41.41.1-.42.83A2.11,2.11,0,0,1,146.79,163Z"/><path class="cls-8" d="M147.32,168.18l3.24-6.46.41.1-3.24,6.45Z"/><path class="cls-8" d="M152.38,163.1a.44.44,0,0,1-.29.05.23.23,0,0,1-.18-.16.33.33,0,0,1,0-.27.43.43,0,0,1,.22-.22.41.41,0,0,1,.28-.05.23.23,0,0,1,.18.16.27.27,0,0,1,0,.26A.49.49,0,0,1,152.38,163.1Zm-3.25,5.49,2.22-4.42.41.1-2.22,4.42Z"/><path class="cls-8" d="M155.12,164.93a1.17,1.17,0,0,1,.94.75,1.82,1.82,0,0,1-.21,1.39l-1.38,2.76-.43-.1,1.38-2.76a1.43,1.43,0,0,0,.18-1.06.91.91,0,0,0-.73-.57,1.75,1.75,0,0,0-1.27.21,2.77,2.77,0,0,0-1.07,1.22l-1.17,2.34-.42-.1,2.22-4.42.42.09-.42.84A2.11,2.11,0,0,1,155.12,164.93Z"/><path class="cls-8" d="M159.81,166a1.41,1.41,0,0,1,1.15,1,2.45,2.45,0,0,1-.25,1.78l-.05.1-.06.11-3.79-.87a1.67,1.67,0,0,0,0,1.33,1.31,1.31,0,0,0,1,.73,2,2,0,0,0,1,0,2.24,2.24,0,0,0,.86-.46l.26.32a3.06,3.06,0,0,1-1.11.56,2.52,2.52,0,0,1-1.22,0,1.64,1.64,0,0,1-1.26-1,2.23,2.23,0,0,1,.22-1.8,3.51,3.51,0,0,1,1.43-1.52A2.61,2.61,0,0,1,159.81,166Zm-.21.43a2,2,0,0,0-1.42.19,2.8,2.8,0,0,0-1.15,1.09l3.36.78a1.73,1.73,0,0,0,.09-1.36A1.18,1.18,0,0,0,159.6,166.43Z"/><path class="cls-8" d="M161.78,170.84l-1.38,1.74-.38-.09,1.24-1.77Z"/><path class="cls-8" d="M168,166.68a.45.45,0,0,1-.29,0,.26.26,0,0,1-.19-.16.33.33,0,0,1,0-.27.54.54,0,0,1,.22-.23.43.43,0,0,1,.29,0,.23.23,0,0,1,.18.15.29.29,0,0,1,0,.27A.49.49,0,0,1,168,166.68Zm-3.26,5.52,2.22-4.44.42.09-2.22,4.45Z"/><path class="cls-8" d="M170.81,168.52a1.17,1.17,0,0,1,.95.76,1.85,1.85,0,0,1-.2,1.39l-1.39,2.77-.43-.09,1.39-2.78a1.41,1.41,0,0,0,.16-1.06.89.89,0,0,0-.73-.57,1.76,1.76,0,0,0-1.29.21,2.77,2.77,0,0,0-1.07,1.22L167,172.72l-.42-.1,2.22-4.45.42.1-.42.85A2.13,2.13,0,0,1,170.81,168.52Z"/><path class="cls-8" d="M172.73,171.2l.21-.43,3,.7-.21.43Z"/><path class="cls-8" d="M180.3,170.69a1.58,1.58,0,0,1,1.22,1,2.18,2.18,0,0,1-.18,1.81,3.38,3.38,0,0,1-1.46,1.51,2.6,2.6,0,0,1-1.89.31,1.52,1.52,0,0,1-1.26-1.55l-1.4,2.82-.43-.09,3.11-6.25.42.09-.51,1a3.1,3.1,0,0,1,1.15-.66A2.35,2.35,0,0,1,180.3,170.69Zm-3.13,3.38a1.32,1.32,0,0,0,1,.85,2.12,2.12,0,0,0,1.55-.26,2.8,2.8,0,0,0,1.2-1.23,1.85,1.85,0,0,0,.15-1.47,1.32,1.32,0,0,0-1-.85,2.18,2.18,0,0,0-1.55.27,2.77,2.77,0,0,0-1.2,1.22A1.85,1.85,0,0,0,177.17,174.07Z"/><path class="cls-8" d="M185.5,171.88a1.44,1.44,0,0,1,1.18,1.05,2.52,2.52,0,0,1-.24,1.79s0,.06-.06.1l-.06.11-3.85-.88a1.65,1.65,0,0,0,0,1.34,1.36,1.36,0,0,0,1,.74,1.92,1.92,0,0,0,1,0,2.41,2.41,0,0,0,.87-.45l.26.32a3,3,0,0,1-1.12.56,2.48,2.48,0,0,1-1.24,0,1.64,1.64,0,0,1-1.28-1,2.24,2.24,0,0,1,.21-1.82,3.44,3.44,0,0,1,1.44-1.53A2.66,2.66,0,0,1,185.5,171.88Zm-.21.43a2.1,2.1,0,0,0-1.44.2,2.79,2.79,0,0,0-1.16,1.1l3.42.78a1.74,1.74,0,0,0,.07-1.37A1.21,1.21,0,0,0,185.29,172.31Z"/><path class="cls-8" d="M188.72,173.7a1.93,1.93,0,0,1,1.88-.61l-.21.43a1.82,1.82,0,0,0-1.22.17,2.48,2.48,0,0,0-1,1.12l-1.23,2.5-.43-.1,2.22-4.48.43.1Z"/><path class="cls-8" d="M191,174.56a.53.53,0,0,0,0,.58,1.45,1.45,0,0,0,.5.44c.23.12.45.25.66.38a1.14,1.14,0,0,1,.46.54,1,1,0,0,1-.1.79,1.68,1.68,0,0,1-.88.82,2,2,0,0,1-1.28.11,1.54,1.54,0,0,1-.9-.52,1.11,1.11,0,0,1-.23-.85l.48-.14a.85.85,0,0,0,.16.68,1.17,1.17,0,0,0,.7.39,1.52,1.52,0,0,0,.9,0,1.07,1.07,0,0,0,.62-.56.57.57,0,0,0,0-.59,1.4,1.4,0,0,0-.51-.44l-.66-.38a1.18,1.18,0,0,1-.45-.54.91.91,0,0,1,.09-.77,1.76,1.76,0,0,1,.86-.82,1.83,1.83,0,0,1,1.22-.12,1.31,1.31,0,0,1,.78.44,1.11,1.11,0,0,1,.23.78l-.46.14a.81.81,0,0,0-.18-.61,1,1,0,0,0-.58-.32,1.34,1.34,0,0,0-.84.06A1.1,1.1,0,0,0,191,174.56Z"/><path class="cls-8" d="M195.1,179.3a1.64,1.64,0,0,1-1.26-1.05,2.18,2.18,0,0,1,.17-1.81,3.35,3.35,0,0,1,1.48-1.52,2.74,2.74,0,0,1,1.93-.31,1.63,1.63,0,0,1,1.25,1,2.2,2.2,0,0,1-.17,1.82A3.4,3.4,0,0,1,197,179,2.73,2.73,0,0,1,195.1,179.3Zm-.8-1.29a1.31,1.31,0,0,0,1,.86,2.2,2.2,0,0,0,1.56-.26,2.85,2.85,0,0,0,1.19-1.24,1.79,1.79,0,0,0,.15-1.48,1.3,1.3,0,0,0-1-.85,2.15,2.15,0,0,0-1.56.26,2.82,2.82,0,0,0-1.2,1.24A1.8,1.8,0,0,0,194.3,178Z"/><path class="cls-8" d="M202.64,175.8a1.24,1.24,0,0,1,1,.77,1.82,1.82,0,0,1-.19,1.42l-1.38,2.8-.44-.1,1.38-2.8a1.41,1.41,0,0,0,.16-1.08.92.92,0,0,0-.75-.58,1.81,1.81,0,0,0-1.31.21,2.68,2.68,0,0,0-1.07,1.23l-1.18,2.38-.42-.1,2.22-4.5.42.1-.42.86A2.16,2.16,0,0,1,202.64,175.8Z"/><path class="cls-8" d="M93.18,167.49a1.47,1.47,0,0,1-1.17-1,2.17,2.17,0,0,1,.21-1.76,3.3,3.3,0,0,1,1.44-1.47,2.57,2.57,0,0,1,1.84-.31,1.5,1.5,0,0,1,1.16,1,2.17,2.17,0,0,1-.21,1.76A3.37,3.37,0,0,1,95,167.19,2.55,2.55,0,0,1,93.18,167.49Zm-.73-1.24a1.23,1.23,0,0,0,.94.83,2.09,2.09,0,0,0,1.49-.26A2.82,2.82,0,0,0,96,165.61a1.77,1.77,0,0,0,.18-1.43,1.19,1.19,0,0,0-.93-.82,2,2,0,0,0-1.49.26,2.71,2.71,0,0,0-1.17,1.2A1.81,1.81,0,0,0,92.45,166.25Z"/><path class="cls-8" d="M98.49,164.7a1.89,1.89,0,0,1,1.82-.6l-.21.42a1.68,1.68,0,0,0-1.17.17,2.47,2.47,0,0,0-1,1.09l-1.24,2.43-.4-.09,2.22-4.37.41.1Z"/><path class="cls-8" d="M105.3,165.22a1.5,1.5,0,0,1,1.16,1,2.27,2.27,0,0,1-.21,1.77,3.48,3.48,0,0,1-1.44,1.48,2.56,2.56,0,0,1-1.83.31,1.45,1.45,0,0,1-1.18-1.52l-.52,1-.4-.09,3.11-6.12.41.09L103,165.93a3,3,0,0,1,1.13-.65A2.17,2.17,0,0,1,105.3,165.22Zm-3.08,3.31a1.23,1.23,0,0,0,1,.83,2.05,2.05,0,0,0,1.5-.25,2.84,2.84,0,0,0,1.17-1.21,1.83,1.83,0,0,0,.17-1.44,1.23,1.23,0,0,0-.94-.83,2.1,2.1,0,0,0-1.5.26,2.79,2.79,0,0,0-1.17,1.21A1.82,1.82,0,0,0,102.22,168.53Z"/><path class="cls-8" d="M108,171a1.55,1.55,0,0,1-1.19-1,2.18,2.18,0,0,1,.21-1.77,3.3,3.3,0,0,1,1.45-1.48,2.54,2.54,0,0,1,1.85-.31,1.53,1.53,0,0,1,1.18,1,2.18,2.18,0,0,1-.21,1.77,3.3,3.3,0,0,1-1.45,1.48A2.53,2.53,0,0,1,108,171Zm-.74-1.25a1.23,1.23,0,0,0,.95.83,2,2,0,0,0,1.5-.26,2.82,2.82,0,0,0,1.17-1.2,1.83,1.83,0,0,0,.17-1.44,1.2,1.2,0,0,0-.94-.83,2,2,0,0,0-1.5.26,2.79,2.79,0,0,0-1.18,1.2A1.83,1.83,0,0,0,107.26,169.71Z"/><path class="cls-8" d="M115.24,168.12l-1.21-.28-1.45,2.85a.93.93,0,0,0-.15.58.44.44,0,0,0,.31.28,4.74,4.74,0,0,0,.7.14l-.2.39a1.61,1.61,0,0,1-1.17-.41q-.27-.34.09-1.08l1.45-2.85-.9-.21.22-.43.9.21.55-1.1.49,0-.62,1.23,1.21.28Z"/><path class="cls-8" d="M118.49,168.29a1.14,1.14,0,0,1,.92.75,1.85,1.85,0,0,1-.22,1.38l-1.38,2.73-.42-.1,1.38-2.73a1.41,1.41,0,0,0,.18-1,.86.86,0,0,0-.7-.57,1.68,1.68,0,0,0-1.26.21,2.78,2.78,0,0,0-1.06,1.21l-1.18,2.32-.4-.1,3.11-6.15.41.1-1.31,2.59A2.07,2.07,0,0,1,118.49,168.29Z"/><path class="cls-8" d="M121,172.12a2.71,2.71,0,0,1,.57-.76,3.81,3.81,0,0,1,.71-.54c.24-.14.48-.28.72-.4a4.45,4.45,0,0,0,.68-.45,1.85,1.85,0,0,0,.47-.58,1,1,0,0,0,.09-.91,1.07,1.07,0,0,0-.76-.51,1.81,1.81,0,0,0-1,0,1.88,1.88,0,0,0-.83.58l-.26-.3a2.32,2.32,0,0,1,2.29-.77,1.41,1.41,0,0,1,1,.7,1.39,1.39,0,0,1-.11,1.28,2.1,2.1,0,0,1-.51.65,3.73,3.73,0,0,1-.7.5l-.73.4a4,4,0,0,0-.69.5,2.21,2.21,0,0,0-.52.67Zm-.3,1.67a.42.42,0,0,1-.32.05.26.26,0,0,1-.21-.18.37.37,0,0,1,0-.3.63.63,0,0,1,.25-.26.41.41,0,0,1,.32,0,.25.25,0,0,1,.2.17.38.38,0,0,1,0,.31A.63.63,0,0,1,120.65,173.79Z"/></g><path id="Button_Frame" data-name="Button Frame" class="cls-9" d="M114.56,274.29,158.68,286a1,1,0,0,1,.53,1.52l-6.79,13.8a1.61,1.61,0,0,1-1.73.92l-44.11-11.95a1,1,0,0,1-.5-1.5l6.79-13.59A1.59,1.59,0,0,1,114.56,274.29Z"/><path class="cls-5" d="M117.57,282.2l.71.19-2,3.93-.54-.15-.34-2.82-1.2,2.41-.71-.19,2-3.93.54.14.35,2.81Z"/><path class="cls-5" d="M118.3,286.94a1.07,1.07,0,0,1-.81-.7,1.48,1.48,0,0,1,.14-1.16,2.07,2.07,0,0,1,.91-1,1.53,1.53,0,0,1,1.17-.17,1,1,0,0,1,.73.68,1.53,1.53,0,0,1-.15,1.16,3.31,3.31,0,0,1-.18.29l-1.94-.52a.55.55,0,0,0,.47.72.82.82,0,0,0,.71-.12l.37.48A1.62,1.62,0,0,1,118.3,286.94Zm1.43-2.08a.56.56,0,0,0-.35-.26.79.79,0,0,0-.5,0,1.13,1.13,0,0,0-.44.36l1.32.35A.66.66,0,0,0,119.73,284.86Z"/><path class="cls-5" d="M122.64,288l-.77-.2-.13-1-1,.71-.77-.21,1.66-1.18-.22-1.62.77.21.13.93.91-.65.77.2-1.59,1.13Z"/><path class="cls-5" d="M125.63,286.42l-.59-.16-.58,1.17q-.13.27.12.36l.33.09-.33.66c-.49-.07-.79-.2-.9-.41a1,1,0,0,1,.12-.88l.58-1.17-.45-.12.35-.69.44.12.29-.57.77,0-.39.78.59.16Z"/><path class="cls-5" d="M131.72,286.57a2,2,0,0,1-.15,1.56,3,3,0,0,1-1.13,1.26l.17.52-.75.35-.18-.55a2,2,0,0,1-1,0,1.41,1.41,0,0,1-1-1,2.07,2.07,0,0,1,.17-1.61,3,3,0,0,1,1.28-1.31,2.2,2.2,0,0,1,1.62-.23A1.41,1.41,0,0,1,131.72,286.57ZM129,289a1.29,1.29,0,0,0,.44,0l-.26-.83.75-.36.28.9a2,2,0,0,0,.61-.72,1.35,1.35,0,0,0,.12-1,.89.89,0,0,0-.65-.59,1.38,1.38,0,0,0-1,.14,2,2,0,0,0-.8.84,1.34,1.34,0,0,0-.12,1A.89.89,0,0,0,129,289Z"/><path class="cls-5" d="M134.38,288l.67.18L133.66,291l-.67-.18.15-.32a1.08,1.08,0,0,1-1,.19.77.77,0,0,1-.55-.5,1.26,1.26,0,0,1,.15-.93l.86-1.74.67.18-.82,1.64a.65.65,0,0,0-.07.47.42.42,0,0,0,.31.26.65.65,0,0,0,.49-.07,1.12,1.12,0,0,0,.42-.48Z"/><path class="cls-5" d="M135.75,291.63a1.1,1.1,0,0,1-.82-.7,1.49,1.49,0,0,1,.13-1.17,2.16,2.16,0,0,1,.92-1,1.55,1.55,0,0,1,1.18-.16,1,1,0,0,1,.75.68,1.61,1.61,0,0,1-.16,1.17,1.81,1.81,0,0,1-.17.29l-2-.53a.55.55,0,0,0,.47.73.84.84,0,0,0,.72-.12l.37.48A1.63,1.63,0,0,1,135.75,291.63Zm1.44-2.09a.58.58,0,0,0-.36-.26.79.79,0,0,0-.5,0,1,1,0,0,0-.44.36l1.32.35A.62.62,0,0,0,137.19,289.54Z"/><path class="cls-5" d="M139.53,290.07a.27.27,0,0,0-.18.15.19.19,0,0,0,.05.22,1.36,1.36,0,0,0,.28.21l.33.24a.64.64,0,0,1,.2.37.83.83,0,0,1-.1.51,1.18,1.18,0,0,1-.63.6,1.43,1.43,0,0,1-.87,0,.89.89,0,0,1-.76-1l.76-.2a.39.39,0,0,0,.31.5c.25.07.42,0,.5-.14a.18.18,0,0,0,0-.22,1.6,1.6,0,0,0-.27-.22,1.91,1.91,0,0,1-.33-.25.64.64,0,0,1-.2-.36.76.76,0,0,1,.09-.49,1.17,1.17,0,0,1,.61-.59,1.15,1.15,0,0,1,.77-.06.9.9,0,0,1,.75.88l-.74.18a.36.36,0,0,0-.28-.4A.39.39,0,0,0,139.53,290.07Z"/><path class="cls-5" d="M142.77,291l-.59-.16L141.6,292c-.09.18,0,.3.13.36l.32.08-.33.67c-.49-.07-.79-.21-.91-.41a1,1,0,0,1,.12-.89l.58-1.17-.45-.12.34-.71.46.13.28-.58.78,0-.39.8.59.15Z"/><path class="cls-5" d="M144.26,290.23A.31.31,0,0,1,144,290a.41.41,0,0,1,0-.34.65.65,0,0,1,.28-.29.47.47,0,0,1,.36-.05.31.31,0,0,1,.23.21.44.44,0,0,1,0,.35.61.61,0,0,1-.27.28A.47.47,0,0,1,144.26,290.23Zm-1.9,3.09,1.39-2.84.68.18L143,293.5Z"/><path class="cls-5" d="M146.14,293.93a1.57,1.57,0,0,1-1.2.17,1,1,0,0,1-.76-.7,1.45,1.45,0,0,1,.12-1.17,2.17,2.17,0,0,1,.92-1,1.57,1.57,0,0,1,1.2-.17,1,1,0,0,1,.77.7,1.53,1.53,0,0,1-.12,1.17A2.14,2.14,0,0,1,146.14,293.93Zm-1.24-.9a.55.55,0,0,0,.39.36.86.86,0,0,0,.62-.09,1.11,1.11,0,0,0,.48-.5.83.83,0,0,0,.08-.62.56.56,0,0,0-.4-.36.86.86,0,0,0-.62.09,1.22,1.22,0,0,0-.48.5A.82.82,0,0,0,144.9,293Z"/><path class="cls-5" d="M149.88,292a.72.72,0,0,1,.56.5,1.28,1.28,0,0,1-.14.94l-.86,1.74-.68-.18.81-1.65a.63.63,0,0,0,.08-.48.42.42,0,0,0-.32-.25.61.61,0,0,0-.49.07,1,1,0,0,0-.42.48l-.75,1.53-.68-.18,1.4-2.83.67.18-.15.31A1.06,1.06,0,0,1,149.88,292Z"/><polygon id="Gradient" class="cls-9" points="129.31 64.95 265.36 92.19 245.04 133.66 108.99 104.59 129.31 64.95"/><path class="cls-5" d="M138.64,85.9a3.37,3.37,0,0,1-.27,2.81,6,6,0,0,1-2.14,2.37l.31.92-1.43.7-.33-1a4,4,0,0,1-2,.11,2.49,2.49,0,0,1-2-1.62,3.55,3.55,0,0,1,.33-2.9,5.74,5.74,0,0,1,2.41-2.47,4.48,4.48,0,0,1,3.08-.57A2.49,2.49,0,0,1,138.64,85.9Zm-5.11,4.53a2.82,2.82,0,0,0,.83,0l-.5-1.48,1.43-.71.54,1.58A3.8,3.8,0,0,0,137,88.51a2.26,2.26,0,0,0,.23-1.84,1.54,1.54,0,0,0-1.24-1A2.75,2.75,0,0,0,134,86a3.66,3.66,0,0,0-1.51,1.58,2.3,2.3,0,0,0-.24,1.84A1.55,1.55,0,0,0,133.53,90.43Z"/><path class="cls-5" d="M143.22,88.08l1.27.27-2.64,5.2-1.28-.26.3-.59a2.21,2.21,0,0,1-1.85.43,1.27,1.27,0,0,1-1-.85,2.18,2.18,0,0,1,.27-1.69l1.63-3.2,1.27.27-1.54,3a1.12,1.12,0,0,0-.14.85.71.71,0,0,0,.6.43,1.3,1.3,0,0,0,.93-.16,2.06,2.06,0,0,0,.79-.91Z"/><path class="cls-5" d="M149.38,89.36l1.28.26L148,94.84l-1.28-.27L147,94a2.53,2.53,0,0,1-2,.44,1.63,1.63,0,0,1-1.32-1.16,2.74,2.74,0,0,1,.29-2.1,4.36,4.36,0,0,1,1.7-1.81,3,3,0,0,1,2.13-.44,1.38,1.38,0,0,1,1.2,1.09Zm-4.23,3.17a1,1,0,0,0,.78.62,1.71,1.71,0,0,0,1.19-.21,2.26,2.26,0,0,0,.93-1,1.41,1.41,0,0,0,.15-1.14,1,1,0,0,0-.78-.61,1.65,1.65,0,0,0-1.19.2,2.24,2.24,0,0,0-.92,1A1.46,1.46,0,0,0,145.15,92.53Z"/><path class="cls-5" d="M149.34,95.11l3.87-7.61,1.28.26-3.87,7.62Z"/><path class="cls-5" d="M155.44,89.91a.53.53,0,0,1-.44-.36.79.79,0,0,1,.06-.63,1.29,1.29,0,0,1,.53-.53,1,1,0,0,1,.69-.13.53.53,0,0,1,.43.36.81.81,0,0,1-.06.64,1.21,1.21,0,0,1-.53.52A.91.91,0,0,1,155.44,89.91Zm-3.61,5.72,2.65-5.22,1.28.26-2.65,5.23Z"/><path class="cls-5" d="M158.62,91.21l0,.05,1.05.22L159,92.77l-1.06-.21-2,3.93-1.29-.27,2-3.93-.72-.15.66-1.3.71.15,0,0a3.34,3.34,0,0,1,1.44-1.56,2.72,2.72,0,0,1,2-.14l-.66,1.3A1.16,1.16,0,0,0,158.62,91.21Z"/><path class="cls-5" d="M163.79,92.33l1.39.29-4.47,4.86a5.65,5.65,0,0,1-1.87,1.43A2.75,2.75,0,0,1,157,99l.63-1.26a1.49,1.49,0,0,0,.94-.06,2.46,2.46,0,0,0,.88-.68l.51-5.49,1.41.29-.47,3.79Z"/><path class="cls-5" d="M166.86,92.27a.58.58,0,0,1-.44-.36.78.78,0,0,1,.06-.63,1.28,1.28,0,0,1,.54-.54.94.94,0,0,1,.68-.13.53.53,0,0,1,.44.36.81.81,0,0,1-.06.64,1.23,1.23,0,0,1-.53.53A1,1,0,0,1,166.86,92.27ZM163.25,98l2.65-5.24,1.29.26-2.65,5.25Z"/><path class="cls-5" d="M171.28,93.71a1.32,1.32,0,0,1,1.07.86,2.23,2.23,0,0,1-.27,1.71l-1.63,3.23-1.29-.27,1.54-3.06a1.09,1.09,0,0,0,.13-.86.75.75,0,0,0-.61-.43,1.32,1.32,0,0,0-.94.16,2.06,2.06,0,0,0-.79.91l-1.44,2.84-1.29-.27,2.65-5.25,1.29.27-.29.59A2.21,2.21,0,0,1,171.28,93.71Z"/><path class="cls-5" d="M178,95.27l1.27.26-2.52,5a3.48,3.48,0,0,1-1.71,1.7,3.53,3.53,0,0,1-2.18.25,2.49,2.49,0,0,1-1.28-.62,1.65,1.65,0,0,1-.47-1.16l1.45-.43a1,1,0,0,0,.94,1,1.69,1.69,0,0,0,1.14-.13,1.92,1.92,0,0,0,.84-.89l.29-.57a2.56,2.56,0,0,1-2,.46A1.72,1.72,0,0,1,172.37,99a2.62,2.62,0,0,1,.24-2,4.1,4.1,0,0,1,1.69-1.76,3.05,3.05,0,0,1,2.17-.43,1.38,1.38,0,0,1,1.22,1.14Zm-4.23,3.08a1,1,0,0,0,.81.61,1.76,1.76,0,0,0,1.22-.19,2.17,2.17,0,0,0,.92-1,1.34,1.34,0,0,0,.12-1.12,1,1,0,0,0-.81-.61,1.77,1.77,0,0,0-1.22.2,2.12,2.12,0,0,0-.92.95A1.32,1.32,0,0,0,173.79,98.35Z"/><path class="cls-5" d="M189.79,96.43a3.42,3.42,0,0,1-.24,2.87,5.87,5.87,0,0,1-2.17,2.4l.34,1-1.46.71-.36-1a4.16,4.16,0,0,1-2,.11,2.59,2.59,0,0,1-2-1.66,3.53,3.53,0,0,1,.29-3,5.74,5.74,0,0,1,2.45-2.5,4.52,4.52,0,0,1,3.16-.58A2.62,2.62,0,0,1,189.79,96.43Zm-5.2,4.61a3,3,0,0,0,.86,0l-.53-1.51,1.46-.71.57,1.61a3.76,3.76,0,0,0,1.15-1.36,2.27,2.27,0,0,0,.22-1.88,1.65,1.65,0,0,0-1.3-1,2.84,2.84,0,0,0-2,.35,3.7,3.7,0,0,0-1.53,1.6,2.28,2.28,0,0,0-.21,1.87A1.64,1.64,0,0,0,184.59,101Z"/><path class="cls-5" d="M194.53,98.67l1.31.28-2.65,5.29-1.31-.27.3-.6a2.27,2.27,0,0,1-1.9.43,1.35,1.35,0,0,1-1.09-.87,2.19,2.19,0,0,1,.26-1.72L191.08,98l1.32.27-1.55,3.08a1.15,1.15,0,0,0-.13.87.8.8,0,0,0,.62.44,1.38,1.38,0,0,0,1-.17,2.05,2.05,0,0,0,.8-.92Z"/><path class="cls-5" d="M196.8,105.16a2,2,0,0,1-1.63-1.22,2.6,2.6,0,0,1,.23-2.16,4.23,4.23,0,0,1,1.76-1.84,3.26,3.26,0,0,1,2.31-.41,1.81,1.81,0,0,1,1.48,1.2,2.73,2.73,0,0,1-.26,2.14,5.79,5.79,0,0,1-.33.56l-3.86-.8c-.16.7.16,1.13.94,1.29a1.73,1.73,0,0,0,1.41-.29l.75.86A3.41,3.41,0,0,1,196.8,105.16Zm2.75-4a1,1,0,0,0-.71-.44,1.6,1.6,0,0,0-1,.11,2.13,2.13,0,0,0-.85.69l2.61.54A1.08,1.08,0,0,0,199.55,101.2Z"/><path class="cls-5" d="M203.64,101.87a.56.56,0,0,0-.33.29.3.3,0,0,0,.1.39,2.41,2.41,0,0,0,.54.37,4.59,4.59,0,0,1,.66.42,1.07,1.07,0,0,1,.4.65,1.52,1.52,0,0,1-.17,1,2.25,2.25,0,0,1-1.23,1.14,2.86,2.86,0,0,1-1.69.13c-1-.21-1.56-.79-1.52-1.71l1.48-.43a.7.7,0,0,0,.63.89c.49.1.82,0,1-.3a.31.31,0,0,0-.1-.4,2.9,2.9,0,0,0-.55-.38,4.48,4.48,0,0,1-.64-.43,1.12,1.12,0,0,1-.41-.64,1.28,1.28,0,0,1,.16-.92,2.26,2.26,0,0,1,1.18-1.12,2.41,2.41,0,0,1,1.5-.19,1.61,1.61,0,0,1,1.5,1.55l-1.45.41a.62.62,0,0,0-.55-.71A.78.78,0,0,0,203.64,101.87Z"/><path class="cls-5" d="M209.53,103.23l-1.17-.25-1.1,2.22c-.17.34-.08.56.26.65a5.08,5.08,0,0,0,.64.13l-.62,1.25c-1-.09-1.57-.31-1.8-.67s-.17-.91.19-1.64l1.11-2.21-.9-.19.66-1.31.89.18.54-1.07,1.53-.14-.74,1.49,1.16.24Z"/><path class="cls-5" d="M212.27,101.63a.59.59,0,0,1-.46-.37.77.77,0,0,1,.05-.64,1.36,1.36,0,0,1,.54-.55,1.09,1.09,0,0,1,.71-.13.59.59,0,0,1,.45.37.75.75,0,0,1-.06.65,1.2,1.2,0,0,1-.53.54A1,1,0,0,1,212.27,101.63Zm-3.63,5.83,2.64-5.33,1.33.28L210,107.73Z"/><path class="cls-5" d="M216,108.24a3.36,3.36,0,0,1-2.35.42,1.93,1.93,0,0,1-1.53-1.23,2.58,2.58,0,0,1,.2-2.16,4.19,4.19,0,0,1,1.78-1.83,3.35,3.35,0,0,1,2.35-.42,2,2,0,0,1,1.53,1.22,2.6,2.6,0,0,1-.19,2.17A4.16,4.16,0,0,1,216,108.24Zm-2.48-1.55a1,1,0,0,0,.79.62,1.75,1.75,0,0,0,1.21-.21,2.13,2.13,0,0,0,.93-1,1.32,1.32,0,0,0,.12-1.14,1,1,0,0,0-.79-.63,1.76,1.76,0,0,0-1.21.21,2.24,2.24,0,0,0-.92,1A1.43,1.43,0,0,0,213.47,106.69Z"/><path class="cls-5" d="M223.1,104.4a1.39,1.39,0,0,1,1.11.88A2.19,2.19,0,0,1,224,107l-1.62,3.29L221,110l1.54-3.11a1.08,1.08,0,0,0,.12-.88.78.78,0,0,0-.63-.44,1.4,1.4,0,0,0-1,.16,2.14,2.14,0,0,0-.8.93l-1.43,2.89-1.34-.28,2.65-5.34,1.34.28-.3.6A2.28,2.28,0,0,1,223.1,104.4Z"/><path class="cls-5" d="M226.89,106.67a.58.58,0,0,0-.33.3.3.3,0,0,0,.1.39,2.36,2.36,0,0,0,.56.38,4.59,4.59,0,0,1,.66.42,1.09,1.09,0,0,1,.41.66,1.43,1.43,0,0,1-.17,1,2.21,2.21,0,0,1-1.23,1.14,2.93,2.93,0,0,1-1.71.14c-1.07-.23-1.59-.8-1.56-1.73l1.51-.44a.7.7,0,0,0,.63.9q.75.17,1-.3a.31.31,0,0,0-.11-.4,2.5,2.5,0,0,0-.55-.38,5.82,5.82,0,0,1-.66-.44,1.16,1.16,0,0,1-.42-.65,1.28,1.28,0,0,1,.16-.92,2.24,2.24,0,0,1,1.18-1.13,2.51,2.51,0,0,1,1.53-.19A1.63,1.63,0,0,1,229.4,107l-1.46.4a.63.63,0,0,0-.56-.71A.9.9,0,0,0,226.89,106.67Z"/><polygon id="Menu_Stripe" data-name="Menu Stripe" class="cls-10" points="129.31 64.95 265.36 92.19 265.55 91.81 129.5 64.59 129.31 64.95"/><polygon id="Menu_Frame" data-name="Menu Frame" class="cls-11" points="145.3 33.77 281.35 59.58 265.55 91.81 129.5 64.59 145.3 33.77"/><path class="cls-12" d="M256.3,73.88,261.75,75a.36.36,0,0,1,.23.56.68.68,0,0,1-.69.38l-5.45-1.07a.36.36,0,0,1-.23-.56A.69.69,0,0,1,256.3,73.88Z"/><path class="cls-12" d="M258.46,69.51l5.45,1.06a.36.36,0,0,1,.23.56.71.71,0,0,1-.7.38L258,70.45a.36.36,0,0,1-.23-.56A.67.67,0,0,1,258.46,69.51Z"/><path class="cls-12" d="M257.38,71.7l5.45,1.06a.36.36,0,0,1,.23.56.69.69,0,0,1-.69.38l-5.45-1.07a.36.36,0,0,1-.23-.56A.7.7,0,0,1,257.38,71.7Z"/><g id="Icon_Group" data-name="Icon Group"><path id="Solid" class="cls-13" d="M158.72,51.1h0c-1.45,2.85-4.84,4.72-7.56,4.19L149.51,55l-1.57,3.09a.53.53,0,0,1-.51.28l-4.26-.84c-.19,0-.25-.22-.16-.41L144.59,54a3.82,3.82,0,0,1,3.77-2.09l2.82.55a4,4,0,0,0,2.25-.31l-.07-1a2.81,2.81,0,0,1-1.6.23.84.84,0,0,1-.66-1.22l3.53.69a6.48,6.48,0,0,0,.61-.93c.63-1.24.2-2.23-1.12-2.48l-5.92-1.15c-1.18-.23-1.62-1.4-1-2.63a.51.51,0,0,1,.5-.28l7,1.36,1.64.32C159.13,45.53,160.17,48.26,158.72,51.1Zm-5.17-2.59a2.14,2.14,0,0,0-1.86.73l2.36.46a.47.47,0,0,0,.06-.09A.71.71,0,0,0,153.55,48.51Z"/><path id="Gradient-2" data-name="Gradient" class="cls-14" d="M158.72,51.1h0c-1.45,2.85-4.84,4.72-7.56,4.19L149.51,55l-1.57,3.09a.53.53,0,0,1-.51.28l-4.26-.84c-.19,0-.25-.22-.16-.41L144.59,54a3.82,3.82,0,0,1,3.77-2.09l2.82.55a4,4,0,0,0,2.25-.31l-.07-1a2.81,2.81,0,0,1-1.6.23.84.84,0,0,1-.66-1.22l3.53.69a6.48,6.48,0,0,0,.61-.93c.63-1.24.2-2.23-1.12-2.48l-5.92-1.15c-1.18-.23-1.62-1.4-1-2.63a.51.51,0,0,1,.5-.28l7,1.36,1.64.32C159.13,45.53,160.17,48.26,158.72,51.1Zm-5.17-2.59a2.14,2.14,0,0,0-1.86.73l2.36.46a.47.47,0,0,0,.06-.09A.71.71,0,0,0,153.55,48.51Z"/></g></g></g></svg>