<svg class="contact-icon" xmlns="http://www.w3.org/2000/svg" viewBox="0 0 60 60"><defs><style>.cls-2{fill:#4832a8}.cls-3{fill:#ec4a7c}</style></defs><path fill="#eceaf6" d="M6.44 24.99l-.11 23.56.86 1.71 1.38 1.38 42.33.21 1.27-.74 1.07-1.71.43-3.73-.22-20.89-7.03 4.47-10.13 7.25-1.81 1.18-4.34-2.86-4.83 3.17L8.25 25.2l-1.81-.21z"></path><path class="cls-2" d="M50.39 52.79H9.89A4.2 4.2 0 0 1 5.7 48.6V24.31a1 1 0 0 1 2 0V48.6a2.19 2.19 0 0 0 2.19 2.19h40.5a2.19 2.19 0 0 0 2.19-2.19V24.31a1 1 0 0 1 2 0V48.6a4.2 4.2 0 0 1-4.19 4.19z"></path><path class="cls-2" d="M50.34 49.56a1.07 1.07 0 0 1-.56-.17L30.14 36 10.49 49.39a1 1 0 0 1-1.12-1.66L29.58 34a1 1 0 0 1 1.12 0l20.21 13.73a1 1 0 0 1 .26 1.39 1 1 0 0 1-.83.44zM53.58 25.31a1.06 1.06 0 0 1-.57-.17L30.14 9.36 7.26 25.14a1 1 0 0 1-1.13-1.65L29.57 7.32a1 1 0 0 1 1.14 0l23.44 16.17a1 1 0 0 1-.57 1.82z"></path><path class="cls-2" transform="rotate(-35.3 43.881 31.18)" d="M31.99 30.18h23.77v2H31.99z"></path><path class="cls-2" transform="rotate(-54.69 16.396 31.186)" d="M15.4 19.3h2v23.77h-2z"></path><path class="cls-3" d="M30.14 32.59a9.09 9.09 0 1 1 9.08-9.09 1 1 0 0 1-2 0 7.09 7.09 0 1 0-7.08 7.09 1 1 0 0 1 0 2z"></path><path class="cls-3" d="M30.14 28.54a5 5 0 1 1 5-5 5 5 0 0 1-5 5zm0-8.08a3 3 0 1 0 3 3 3 3 0 0 0-3-3z"></path><path class="cls-3" d="M34.18 29.35a1 1 0 0 1-1-1v-8.89a1 1 0 0 1 2 0v8.89a1 1 0 0 1-1 1z"></path><path class="cls-3" d="M36.2 30.77a3 3 0 0 1-3-3 1 1 0 0 1 2 0 1 1 0 0 0 1 1 1.21 1.21 0 0 0 1-1.23 1 1 0 1 1 2 0 3.21 3.21 0 0 1-3 3.23z"></path><path class="cls-3" d="M38.22 28.54a1 1 0 0 1-1-1v-4a1 1 0 0 1 2 0v4a1 1 0 0 1-1 1z"></path></svg>