<svg class="contact-icon" xmlns="http://www.w3.org/2000/svg" viewBox="0 0 60 60"><defs><style>.cls-3{fill:#ec4a7c}</style></defs><path d="M35.42 37.67c-1.09 1.09-1.78 2.53-2.73 2.72-2.72.55-6.52-3.25-8.18-4.9s-5.45-5.46-4.9-8.18c.19-.95 1.63-1.64 2.72-2.73a5.27 5.27 0 0 0 1.35-2.36l-2.25-9.34a7.58 7.58 0 0 0-9.9.69c-3 3-2.13 7-1.19 11 1.63 7.09 6 12.57 9.27 15.81s8.72 7.62 15.81 9.28c4 .94 8 1.77 11-1.19a7.58 7.58 0 0 0 .69-9.9l-9.34-2.25a5.27 5.27 0 0 0-2.35 1.35z" fill="#eceaf6"></path><path d="M41 51.52a26.2 26.2 0 0 1-5.83-.88C27.93 49 22.33 44.53 18.9 41.1s-7.86-9-9.54-16.3c-.87-3.79-2-8.51 1.46-11.94A8.6 8.6 0 0 1 22 12.09a1 1 0 0 1 .37.56L24.65 22a1 1 0 0 1-.07.67 4 4 0 0 0-.18.47 4.86 4.86 0 0 1-1.4 2.15 15.71 15.71 0 0 1-1.31 1.12c-.46.35-1.09.85-1.14 1.09-.44 2.21 3.38 6 4.63 7.28s5.08 5.07 7.28 4.63c.24 0 .74-.68 1.09-1.14A15.71 15.71 0 0 1 34.71 37a4.91 4.91 0 0 1 2.16-1.36 4 4 0 0 0 .47-.18 1 1 0 0 1 .67-.07l9.34 2.25a.93.93 0 0 1 .56.37 8.59 8.59 0 0 1-.78 11.21 8.17 8.17 0 0 1-6.13 2.3zM16.88 12.37a6.52 6.52 0 0 0-4.64 1.91c-2.45 2.45-1.93 5.72-.93 10.07 1.57 6.8 5.76 12.09 9 15.34s8.53 7.43 15.33 9c4.36 1 7.63 1.52 10.08-.93a6.57 6.57 0 0 0 .8-8.3l-8.66-2.09-.35.12a2.94 2.94 0 0 0-1.38.88 12.75 12.75 0 0 0-1 1.13 4.22 4.22 0 0 1-2.28 1.87c-3.25.65-7.19-3.28-9.08-5.18s-5.77-5.83-5.14-9.08a4.17 4.17 0 0 1 1.87-2.28 12.75 12.75 0 0 0 1.13-1 2.94 2.94 0 0 0 .88-1.38l.12-.35-2.09-8.66a6.48 6.48 0 0 0-3.66-1.07z" fill="#4832a8"></path><path class="cls-3" d="M44.17 31.58a1 1 0 0 1-1-.72A20.73 20.73 0 0 0 29.14 16.8a1 1 0 0 1 .56-1.93A22.81 22.81 0 0 1 45.13 30.3a1 1 0 0 1-.69 1.24.84.84 0 0 1-.27.04z"></path><path class="cls-3" d="M50.53 31.58a1 1 0 0 1-1-.79 26.81 26.81 0 0 0-20.32-20.34 1 1 0 0 1 .43-1.95 28.81 28.81 0 0 1 21.87 21.86 1 1 0 0 1-.77 1.19.76.76 0 0 1-.21.03zM37.64 31.58a1 1 0 0 1-.92-.61A14.6 14.6 0 0 0 29 23.28a1 1 0 0 1-.5-1.28 1 1 0 0 1 1.31-.53 16.57 16.57 0 0 1 8.75 8.75A1 1 0 0 1 38 31.5a1.09 1.09 0 0 1-.36.08z"></path><path class="cls-3" d="M44.17 31.58a1 1 0 0 1-1-.72A20.73 20.73 0 0 0 29.14 16.8a1 1 0 0 1 .56-1.93A22.81 22.81 0 0 1 45.13 30.3a1 1 0 0 1-.69 1.24.84.84 0 0 1-.27.04z"></path></svg>