<svg class="monetization__img_desktop" width="674" height="444" viewBox="0 0 674 444" fill="none" xmlns="http://www.w3.org/2000/svg">
                <path class="cloud1" d="M673.439 20.6578C671.513 15.2392 666.412 11.3491 660.396 11.3491C657.658 11.3491 655.108 12.1609 652.963 13.5524C650.247 6.16238 643.22 0.901855 634.976 0.901855C627.377 0.901855 620.819 5.37172 617.707 11.8551C616.541 11.5283 615.313 11.3386 614.043 11.3386C608.026 11.3386 602.926 15.2181 601 20.6473H673.439V20.6578Z" fill="white"></path>
                <path class="cloud2" d="M83.7277 444C81.5018 437.807 75.6064 433.362 68.6521 433.362C65.4878 433.362 62.5401 434.289 60.0616 435.88C56.9213 427.434 48.8 421.422 39.271 421.422C30.488 421.422 22.9081 426.53 19.3107 433.94C17.9631 433.566 16.5434 433.35 15.0756 433.35C8.12131 433.35 2.22584 437.783 0 443.988H83.7277V444Z" fill="white"></path>
                <path d="M396.024 419.301H273.268C256.558 419.301 247.391 404.63 249.295 391.292L296.748 53.8537C298.933 38.2933 312.612 26.0672 327.56 26.0672H450.809C466.391 25.9931 477.884 37.7005 475.557 54.0019L428.246 390.774C425.778 407.075 411.677 419.301 396.024 419.301Z" fill="#1963AD"></path>
                <path d="M379.383 419.303H256.627C239.916 419.303 230.75 404.632 232.654 391.294L280.177 53.8557C282.363 38.2952 296.041 26.0692 310.919 26.0692H434.168C449.75 25.9951 461.243 37.7025 458.916 54.0039L411.605 390.776C409.137 407.077 395.106 419.303 379.383 419.303Z" fill="#439CF6"></path>
                <path d="M334.962 391.441C333.905 399.591 326.431 406.186 318.393 406.186C310.355 406.186 304.785 399.591 305.842 391.441C306.9 383.29 314.303 376.695 322.341 376.695C330.379 376.621 336.02 383.216 334.962 391.441Z" fill="white"></path>
                <path d="M396.586 54.373L352.941 54.2989C351.32 54.2989 350.192 52.9651 350.403 51.335C350.615 49.7048 352.095 48.3711 353.788 48.3711H397.432C399.125 48.3711 400.253 49.7048 400.041 51.4091C399.759 53.0392 398.279 54.373 396.586 54.373Z" fill="#15289E"></path>
                <path d="M342.577 51.335C342.366 52.9651 340.885 54.2989 339.263 54.2989C337.642 54.2989 336.513 52.9651 336.725 51.335C336.936 49.7048 338.417 48.3711 340.039 48.3711C341.59 48.3711 342.789 49.7048 342.577 51.335Z" fill="#15289E"></path>
                <path d="M372.12 38.7379C371.979 39.9976 370.851 41.0349 369.582 41.0349C368.383 41.0349 367.466 39.9976 367.678 38.7379C367.819 37.4783 368.947 36.4409 370.216 36.4409C371.415 36.4409 372.332 37.4783 372.12 38.7379Z" fill="#15289E"></path>
                <path d="M286.594 75.4903L247.462 353.503C246.827 357.875 250.07 361.802 254.301 361.802H400.747C404.202 361.802 407.093 359.135 407.587 355.578L446.719 77.565C447.354 73.1933 444.11 69.2661 439.88 69.2661H293.433C289.978 69.2661 287.087 71.9336 286.594 75.4903Z" fill="white"></path>
                <path d="M459.199 116.095H459.058C457.436 115.873 456.308 114.243 456.52 112.539L461.032 80.3803C461.244 78.6761 462.795 77.4905 464.417 77.7128H464.558C466.18 77.9351 467.308 79.5652 467.096 81.2695L462.584 113.428C462.372 115.132 460.821 116.317 459.199 116.095Z" fill="white"></path>
                <path d="M452.783 162.925H452.642C451.02 162.702 449.892 161.072 450.103 159.368L454.616 127.21C454.827 125.506 456.378 124.32 458 124.542H458.141C459.763 124.765 460.891 126.395 460.68 128.099L456.167 160.257C455.955 161.962 454.404 163.147 452.783 162.925Z" fill="white"></path>
                <path d="M412.452 235.985L398.632 334.164H262.198L276.018 235.985H412.452Z" fill="#7EBDFC"></path>
                <path d="M430.362 108.538L424.792 147.883C424.087 152.848 419.997 156.553 415.203 156.553H375.224C369.302 156.553 364.789 151.069 365.635 144.919L371.205 105.574C371.91 100.609 376 96.9043 380.795 96.9043H420.773C426.696 96.9043 431.208 102.387 430.362 108.538Z" fill="#FED042"></path>
                <path d="M278.838 215.534H415.342L413.439 228.871H277.004L278.838 215.534Z" fill="#7EBDFC"></path>
                <path d="M281.728 194.935H418.233L416.329 208.198H279.895L281.728 194.935Z" fill="#7EBDFC"></path>
                <path d="M284.619 174.262H421.053L419.22 187.6H282.715L284.619 174.262Z" fill="#7EBDFC"></path>
                <path d="M292.093 117.503H358.865L357.032 130.841H290.189L292.093 117.503Z" fill="#7EBDFC"></path>
                <path d="M294.913 96.9043H361.755L359.851 110.168H293.079L294.913 96.9043Z" fill="#7EBDFC"></path>
                <path d="M148.954 394.966L149.668 417.29L150.85 417.36L152.881 399.932L148.954 394.966Z" fill="url(#paint0_linear)"></path>
                <path d="M153.672 353.959C153.839 365.133 152.813 379.528 152.378 387.059C152.088 387.575 151.731 387.985 151.34 388.301C156.863 397.062 155.156 407.603 162.185 416.376C165.097 420.276 167.876 418.227 171.636 416.481C171.424 416.118 171.268 415.568 170.62 414.525C167.831 410.016 169.248 406.057 167.53 401.196C165.533 395.527 163.123 391.697 162.989 386.52C163.747 376.951 165.834 364.723 168.132 354.884C168.724 352.366 169.326 349.848 169.929 347.318C164.339 347.002 158.715 345.877 153.293 343.957C153.505 347.06 153.627 350.457 153.672 353.959Z" fill="#F4C5BE"></path>
                <path d="M184.725 195.019C186.834 181.947 167.71 169.871 157.556 164.976C156.954 166.908 136.245 181.959 146.421 215.621C152.413 245.641 161.104 274.032 163.169 297.926C153.328 308.093 150.438 324.631 152.346 335.325C152.781 337.749 153.093 340.701 153.305 343.957C158.728 345.878 164.351 347.002 169.941 347.319C173.4 332.982 175.922 318.879 177.841 305.176C178.293 301.945 182.784 207.036 184.725 195.019Z" fill="url(#paint1_linear)"></path>
                <path d="M162.186 416.376C155.156 407.603 156.863 397.05 151.34 388.3C149.934 389.436 148.116 389.729 147.893 392.353C147.591 395.984 150.37 397.624 152.869 399.931C157.354 404.066 156.997 409.676 158.47 414.841C159.519 418.519 160.969 419.362 164.529 420.944C167.775 422.384 169.438 421.881 173.923 422.045C177.873 422.185 179.1 419.479 174.872 418.039C172.417 417.195 171.948 417.031 171.625 416.493C167.876 418.226 165.098 420.276 162.186 416.376Z" fill="url(#paint2_linear)"></path>
                <path d="M139.222 407.288L141.22 429.53H142.413L143.429 411.996L139.222 407.288Z" fill="url(#paint3_linear)"></path>
                <path d="M138.978 346.628C139.045 346.932 139.09 347.249 139.168 347.542C140.284 352.203 141.054 358.903 141.578 366.059C142.393 377.21 142.203 391.64 142.203 399.183C141.946 399.722 141.611 400.143 141.232 400.483C147.246 408.869 146.164 419.504 153.684 427.82C156.819 431.533 159.475 429.308 163.123 427.328C162.889 426.977 162.699 426.438 161.996 425.443C158.95 421.121 160.144 417.08 158.136 412.324C155.804 406.796 153.193 403.13 152.758 397.965C152.97 388.372 154.342 376.027 156.061 366.059C156.987 360.66 158.002 355.237 158.962 349.837C152.133 350.177 145.271 349.216 138.978 346.628Z" fill="#EFBBB2"></path>
                <path d="M166.973 184.794C155.916 185.017 145.431 181.535 134.999 177.295C134.058 179.176 121.566 190.608 125.592 229.037C133.302 258.611 144.356 285.792 147.804 309.511C142.996 325.935 140.173 339.106 138.978 346.628C145.271 349.217 152.133 350.177 158.962 349.837C161.026 338.183 162.811 326.658 162.867 315.824C162.902 309.001 164.942 228.424 166.181 216.301C167.531 203.124 172.427 199.631 178.114 193.155C182.345 188.339 186.32 183.693 186.287 181.069C180.451 184.021 174.225 184.642 166.973 184.794Z" fill="url(#paint4_linear)"></path>
                <path d="M153.672 427.82C146.152 419.516 147.246 408.869 141.22 400.482C139.881 401.701 138.085 402.11 138.018 404.746C137.929 408.388 140.785 409.841 143.43 411.996C148.149 415.838 148.116 421.46 149.879 426.52C151.14 430.127 152.635 430.877 156.283 432.224C159.608 433.454 161.237 432.845 165.723 432.727C169.672 432.622 170.743 429.846 166.437 428.663C163.937 427.984 163.458 427.843 163.112 427.316C159.463 429.307 156.808 431.533 153.672 427.82Z" fill="url(#paint5_linear)"></path>
                <path d="M139.814 142.04C135.663 135.375 135.172 126.872 136.187 118.978C137.203 111.083 139.579 103.447 140.695 95.5756C141.075 92.8583 141.309 90.059 140.662 87.4119C139.267 81.7195 134.045 77.4327 133.588 71.5764C133.097 65.2749 138.24 60.2034 140.439 54.3119C141.822 50.6107 139.1 48.479 137.538 45.5156C133.744 38.3241 133.733 31.7767 138.24 25.077C141.934 19.5955 147.557 14.8636 153.638 12.6616C162.017 9.62799 177.928 10.6236 184.31 17.9791C188.271 22.5471 190.079 28.8368 190.324 35.0094C190.425 37.4573 190.324 40.0224 191.295 42.2478C194.564 49.6971 206.123 47.6239 211.278 53.7965C213.945 56.9941 214.201 61.6089 214.737 65.8254C215.273 70.042 216.612 74.7505 220.26 76.5894C222.726 77.8309 225.605 77.4093 228.338 77.4093C240.69 77.4327 252.015 87.3533 255.607 99.7571C261.476 119.973 248.801 138.292 233.928 149.63C215.161 163.954 190.201 168.147 167.942 161.366C160.823 159.199 154.196 155.427 148.238 150.789C145.047 148.318 141.989 145.53 139.814 142.04Z" fill="url(#paint6_linear)"></path>
                <path d="M219.526 76.3241C220.943 74.2004 228.045 75.2486 229.852 76.8397C230.896 77.7621 230.942 80.6382 229.954 81.6797C228.722 81.2085 229.455 79.745 228.915 78.8493C228.444 78.0774 227.592 78.2814 226.663 78.2676C224.171 78.2277 221.105 79.9086 219.526 76.3241Z" fill="#F4C5BE"></path>
                <path d="M222.415 70.7688C223.9 70.519 225.904 69.8875 227.246 70.9423C228.134 71.6335 228.557 72.821 228.61 73.983C228.663 75.145 228.395 76.28 228.122 77.3994C227.626 79.4428 220.242 83.7089 217.246 80.1568C216.375 79.1281 207.809 82.4219 211.666 76.2923C212.065 75.6574 212.648 75.1623 213.305 74.825C215.408 73.7456 220.29 71.3032 222.415 70.7688Z" fill="#F4C5BE"></path>
                <path d="M222.726 71.8767C223.737 69.5032 237.746 69.8392 236.962 71.0579C236.724 72.3755 230.989 72.1874 230.076 72.3618C227.638 72.813 224.927 75.0807 222.726 71.8767Z" fill="#F4C5BE"></path>
                <path d="M222.675 72.1607C224.554 70.4685 231.177 73.3237 232.567 75.3311C233.368 76.4966 232.734 79.299 231.532 80.0429C230.452 79.258 231.495 78.0366 231.187 77.0343C230.908 76.1622 230.029 76.1469 229.144 75.8959C226.729 75.209 223.359 76.0448 222.675 72.1607Z" fill="#F4C5BE"></path>
                <path d="M220.545 77.3723C221.695 75.8804 226.864 77.0448 228.123 78.317C228.847 79.0446 228.742 81.1758 227.959 81.8913C227.074 81.4726 227.689 80.4424 227.33 79.7509C227.013 79.1578 226.377 79.2609 225.702 79.2027C223.875 79.0221 221.545 80.0938 220.545 77.3723Z" fill="#F4C5BE"></path>
                <path d="M212.141 75.6931L183.476 116.11C177.873 122.573 182.187 131.896 189.577 130.616C192.004 130.198 194.005 128.408 195.07 126.085C206.394 101.324 217.214 80.053 217.214 80.053L212.141 75.6931Z" fill="#F4C5BE"></path>
                <path d="M187.211 132.138C190.974 132.138 197.752 128.663 194.737 115.675C191.763 102.862 175.349 80.5886 168.866 75.6927C165.932 73.479 157.137 78.1879 155.441 81.7486C153.354 86.1291 156.322 91.2124 158.9 95.4993C160.227 97.6896 161.544 99.4113 163.095 101.344C164.244 102.761 164.322 103.077 164.155 104.811C164.735 105.279 165.695 105.268 166.197 105.736C167 106.497 166.587 107.505 167.748 107.903C167.759 108.887 183.885 132.138 187.211 132.138Z" fill="url(#paint7_linear)"></path>
                <path d="M174.403 187.336C176.088 187.196 177.751 186.985 179.413 186.727C179.201 184.069 177.862 180.684 176.914 178.037C176.278 180.941 175.329 184.572 174.403 187.336Z" fill="white"></path>
                <path d="M184.859 94.5074C170.748 84.6294 174.511 76.633 164.567 74.8632C162.391 72.4621 159.3 71.244 156.154 71.49C145.347 68.6365 137.351 78.5146 135.233 83.6829C131.236 95.9186 132.567 99.1085 134.798 107.261L148.522 146.229C148.678 149.754 139.703 167.887 134.72 177.443C141.584 181.057 166.985 196.11 172.176 198.947C173.002 196.183 176.55 181.941 177.108 179.036C177.333 181.998 180.155 195.169 180.544 197.776C182.037 195.169 184.859 189.054 187.217 184.927L181.567 125.553C181.578 125.564 203.834 107.79 184.859 94.5074Z" fill="#FED042"></path>
                <path d="M155.696 56.877L152.224 71.9426L171.058 89.0666L168.034 78.6657L168.397 66.2846L155.696 56.877Z" fill="#F4C5BE"></path>
                <path d="M183.886 29.928C182.911 29.4139 181.786 30.1804 181.696 31.279C181.35 35.5249 179.668 39.5255 175.755 42.6731C172.207 45.5309 161.127 49.6655 155.537 45.3318C155.403 45.2264 155.325 45.1256 155.336 44.985V44.8633C155.402 43.1254 155.05 41.297 153.804 40.0844C153.525 39.8136 153.231 39.5763 152.912 39.3776C151.946 38.7762 150.709 38.7212 149.645 39.1244C148.615 39.515 148.259 40.146 148.034 40.9245C147.774 41.8245 147.7 42.7699 147.699 43.7067C147.862 45.1693 148.098 46.197 148.422 46.9272C149.371 49.0627 152.198 49.8875 153.246 51.9762C153.328 52.1398 153.38 52.2568 153.451 52.4254C153.756 53.1471 154.622 55.1894 154.756 55.4662C159.751 65.8146 168.867 70.048 176.393 67.6961C180.986 66.2606 187.211 59.6997 186.271 40.4141C186.154 38.0239 186.263 34.1178 184.483 30.5341C184.354 30.275 184.142 30.063 183.886 29.928Z" fill="#F4C5BE"></path>
                <path d="M153.284 158.07L162.277 199.33L155.73 200.406L132.901 144.496C131.88 142.686 132.412 140.354 134.106 139.239L151.573 139.239L153.284 158.07Z" fill="#EFBBB2"></path>
                <path d="M170.185 203.073C171.463 204.191 172.831 205.599 172.766 207.347C172.716 208.504 172.5 209 171.15 210.236C169.782 211.488 169.5 212 168.197 211.734C166.5 211.5 154.392 203.084 155.5 198.5C155.838 197.097 157.201 196.993 158.519 196.596C162.641 195.352 166.831 200.161 170.185 203.073Z" fill="#EFBBB2"></path>
                <path d="M130.51 161.123C130.499 161.545 130.488 161.978 130.666 162.364C131.079 163.266 132.228 163.383 133.177 163.337C142.672 162.845 151.754 156.883 156.351 148.145C156.166 147.19 155.857 145.104 155.696 143.427C154.435 130.309 152.915 119.121 152.792 105.944C152.725 99.2448 152.781 92.346 150.393 86.1383C149.556 83.9714 148.284 81.7694 146.209 80.9144C144.803 80.3288 143.196 80.4576 141.746 80.9378C137.774 82.2614 134.928 86.0914 133.556 90.226C132.184 94.3606 132.061 98.8114 131.949 103.18C131.749 111.449 131.537 119.719 131.336 127.988C131.269 130.611 131.202 133.247 131.135 135.87C130.923 144.28 130.711 152.701 130.51 161.123Z" fill="white"></path>
                <path d="M150.941 69.8814C149.646 70.7482 148.285 71.4978 146.868 72.1186C146.545 72.2591 146.433 72.6573 146.634 72.9619C149.847 77.8343 152.715 82.9528 155.214 88.2586C156.386 90.73 157.49 93.3419 157.535 96.1061C159.633 94.5132 160.4 93.5669 163.222 92.6262C168.396 91.215 171.393 93.1194 173.546 94.6303C170.278 86.0409 162.784 81.4984 158.048 77.1036C155.783 74.808 153.474 72.7979 151.722 70.0571C151.543 69.776 151.209 69.7057 150.941 69.8814Z" fill="white"></path>
                <path d="M178.968 92.8611C178.175 92.8611 177.873 91.6851 175.768 92.8611C174.357 93.3315 174.511 93.5667 173.545 94.6297C172.072 91.397 170.278 87.9221 169.629 84.1586L168.033 78.677V73.3403C168.569 73.9143 169.673 75.6786 170.209 76.2525C170.421 76.4751 170.633 76.7093 170.778 76.9787C170.99 77.3652 171.068 77.8103 171.157 78.2437C172.262 83.7955 175.029 88.9725 178.968 92.8611Z" fill="white"></path>
                <path d="M154.285 53.5845C155.696 57.3475 155.696 58.2883 154.755 62.5217" stroke="#F4C5BE" stroke-width="0.5"></path>
                <path d="M155.225 54.5254C155.696 56.4069 156.166 58.2884 155.225 62.5219" stroke="#F4C5BE" stroke-width="0.5"></path>
                <defs>
                    <linearGradient id="paint0_linear" x1="150.461" y1="407.095" x2="150.887" y2="398.753" gradientUnits="userSpaceOnUse">
                        <stop offset="0.00985222" stop-color="#FF5252"></stop>
                        <stop offset="1" stop-color="#FF1744"></stop>
                    </linearGradient>
                    <linearGradient id="paint1_linear" x1="164.243" y1="334.147" x2="164.243" y2="157.926" gradientUnits="userSpaceOnUse">
                        <stop offset="0.00985222" stop-color="#15289E"></stop>
                    </linearGradient>
                    <linearGradient id="paint2_linear" x1="162.699" y1="379.181" x2="162.699" y2="423.197" gradientUnits="userSpaceOnUse">
                        <stop offset="0.00985222" stop-color="#FED042"></stop>
                    </linearGradient>
                    <linearGradient id="paint3_linear" x1="141.326" y1="401.277" x2="141.326" y2="430.286" gradientUnits="userSpaceOnUse">
                        <stop offset="0.00985222" stop-color="#FED042"></stop>
                    </linearGradient>
                    <linearGradient id="paint4_linear" x1="122.416" y1="263.535" x2="186.298" y2="263.535" gradientUnits="userSpaceOnUse">
                        <stop offset="0.00985222" stop-color="#1963AD"></stop>
                    </linearGradient>
                    <linearGradient id="paint5_linear" x1="153.619" y1="391.701" x2="153.619" y2="434.086" gradientUnits="userSpaceOnUse">
                        <stop offset="0.00985222" stop-color="#FED042"></stop>
                    </linearGradient>
                    <linearGradient id="paint6_linear" x1="129.493" y1="99.2372" x2="250.546" y2="74.2722" gradientUnits="userSpaceOnUse">
                        <stop stop-color="#263238"></stop>
                        <stop offset="1" stop-color="#000001"></stop>
                    </linearGradient>
                    <linearGradient id="paint7_linear" x1="175.114" y1="85.9586" x2="175.114" y2="120.516" gradientUnits="userSpaceOnUse">
                        <stop offset="0.00985222" stop-color="white"></stop>
                    </linearGradient>
                </defs>
            </svg>
