<svg class="solutions__img_desk" width="857" height="541" viewBox="0 0 857 541" fill="none" xmlns="http://www.w3.org/2000/svg">
                <path class="cloud1" d="M856.41 37.5716C852.704 27.2665 842.888 19.8684 831.309 19.8684C826.04 19.8684 821.132 21.4122 817.005 24.0586C811.777 10.0044 798.254 0 782.388 0C767.764 0 755.143 8.50072 749.153 20.8308C746.909 20.2093 744.546 19.8484 742.101 19.8484C730.522 19.8484 720.706 27.2264 717 37.5515H856.41V37.5716Z" fill="white"></path>
                <g opacity="0.29">
                    <g opacity="0.29">
                        <g opacity="0.29">
                            <g opacity="0.29">
                                <path opacity="0.29" d="M264.203 256.195C261.116 256.195 259.058 259.076 259.058 264.22C259.058 269.365 260.911 272.452 264.203 272.452C267.29 272.452 269.348 269.571 269.348 264.22C269.348 258.87 267.29 256.195 264.203 256.195ZM264.203 270.805C262.351 270.805 261.116 268.748 261.116 264.22C261.116 259.693 262.351 257.841 264.203 257.841C266.055 257.841 267.29 259.693 267.29 264.22C267.29 268.748 266.055 270.805 264.203 270.805Z" fill="#56A4FE"></path>
                            </g>
                        </g>
                    </g>
                    <g opacity="0.29">
                        <g opacity="0.29">
                            <g opacity="0.29">
                                <path opacity="0.29" d="M504.776 255.989C501.689 255.989 499.631 258.87 499.631 264.014C499.631 269.365 501.483 272.246 504.776 272.246C507.863 272.246 509.921 269.365 509.921 264.014C509.715 258.87 507.863 255.989 504.776 255.989ZM504.776 270.599C502.924 270.599 501.689 268.542 501.689 264.014C501.689 259.487 502.924 257.635 504.776 257.635C506.628 257.635 507.863 259.487 507.863 264.014C507.863 268.747 506.628 270.599 504.776 270.599Z" fill="#56A4FE"></path>
                            </g>
                        </g>
                    </g>
                </g>
                <path d="M420.401 282.738C420.401 282.738 413.815 278.005 413.609 276.153C413.404 274.301 408.876 266.275 407.436 264.835C405.995 263.188 398.175 260.513 396.734 260.307C395.088 260.102 385.622 260.925 386.856 262.159C388.091 263.394 394.059 262.983 395.294 263.6C396.529 264.217 396.529 264.217 396.529 264.217C396.529 264.217 395.294 265.864 395.911 266.687C396.323 267.716 393.853 269.156 394.882 270.802C395.911 272.449 394.471 272.243 395.294 274.095C396.734 276.976 400.233 278.416 401.262 277.799C401.879 279.445 404.555 282.944 407.23 282.738C409.699 282.532 415.873 288.294 415.873 288.294" fill="#F4C5BE"></path>
                <path d="M520.416 249.813C520.622 254.134 520.416 261.954 521.65 262.983C522.885 264.218 527.001 264.012 527.001 264.012C527.001 264.012 512.39 282.327 511.155 281.504C509.92 280.475 492.634 266.481 496.544 265.658C500.454 264.835 504.158 265.041 504.158 262.983C503.952 260.925 503.952 259.073 503.746 257.015" fill="#F4C5BE"></path>
                <path d="M247.536 244.873C247.742 255.779 257.209 261.953 257.209 261.953L256.591 271.83L262.971 275.946L267.293 278.827L269.762 273.682L270.174 267.303C270.174 265.862 271.408 264.628 272.849 264.216C274.495 263.805 276.759 262.981 279.023 260.512C279.229 260.306 279.229 260.1 279.434 260.1C283.55 254.544 284.991 233.143 270.997 226.969C256.18 220.796 247.125 234.172 247.536 244.873Z" fill="#F4C5BE"></path>
                <path d="M263.177 270.184L262.765 276.152L267.087 279.033L269.557 273.888L269.968 267.509C269.968 266.069 271.203 264.834 272.643 264.422C274.29 264.011 276.553 263.188 278.817 260.718C279.023 260.512 279.023 260.307 279.229 260.307C279.023 260.512 275.525 262.364 270.38 262.982C266.47 263.188 263.383 266.274 263.177 270.184Z" fill="#EFBBB2"></path>
                <path d="M262.559 248.372C261.942 248.578 261.53 247.755 261.53 247.755C261.53 247.755 258.443 240.964 257.414 239.935C255.562 238.083 251.035 238.289 250.829 244.051C250.623 248.578 255.974 258.25 257.62 261.131C257.826 261.542 257.826 262.16 257.414 262.571C257.209 262.777 257.003 262.777 256.797 262.777C256.591 262.777 256.385 262.777 256.18 262.571C252.681 259.485 237.453 244.874 249.594 231.086C249.594 231.086 259.267 231.704 260.707 236.437C262.148 241.17 263.177 247.343 263.177 247.343C263.177 247.343 263.177 247.961 262.559 248.372Z" fill="#232121"></path>
                <path d="M256.59 262.572C256.178 262.572 255.973 262.572 255.767 262.367C252.268 259.28 238.158 242.781 250.299 228.994C250.299 228.994 248.564 233.351 248.77 235.203C248.976 235.203 241.155 247.756 256.59 262.572Z" fill="#232121"></path>
                <path d="M662.825 251.67C657.269 245.497 649.243 244.674 643.069 245.497C634.837 246.32 627.84 251.876 625.371 259.696C624.342 263.194 624.136 267.104 625.782 271.425C630.927 285.419 636.278 294.473 641.217 297.148C643.069 298.177 646.773 297.56 650.683 296.119C651.095 295.914 651.712 296.119 651.918 296.531L653.564 299.618L667.97 296.531C667.97 296.531 666.118 292.621 665.089 288.3C667.147 285.624 672.909 262.988 662.825 251.67Z" fill="#F4C5BE"></path>
                <path d="M633.808 271.63C635.661 271.424 637.307 272.453 637.924 274.1C639.159 276.981 641.011 280.89 642.452 282.125C642.658 282.331 643.481 282.537 644.098 282.125C644.716 281.714 644.921 281.302 644.921 280.89C644.715 279.656 643.892 276.981 643.275 275.334C642.452 273.071 643.481 270.807 646.156 270.19C646.568 269.984 647.802 270.19 648.42 270.396C652.741 271.63 649.655 278.421 649.655 281.714C649.655 284.183 652.536 289.945 653.77 290.356C658.092 292.003 664.472 290.562 667.97 286.241C671.469 281.919 672.086 267.926 670.234 259.283C668.382 250.846 661.591 246.113 659.327 245.496C658.298 245.29 657.269 245.29 656.651 245.29C656.034 245.29 655.211 245.084 654.799 244.673C652.536 242.615 645.744 238.293 635.043 242.821C621.667 248.583 619.403 260.929 619.815 266.486C620.02 270.19 622.901 269.778 624.754 269.161C625.783 268.749 627.017 269.161 627.84 269.778C629.075 270.807 630.927 271.836 633.808 271.63Z" fill="#26282D"></path>
                <g opacity="0.29">
                    <g opacity="0.29">
                        <path opacity="0.29" d="M264.204 229.647C261.117 229.647 259.059 232.528 259.059 237.673C259.059 243.023 260.911 245.904 264.204 245.904C267.291 245.904 269.348 243.023 269.348 237.673C269.143 232.322 267.291 229.647 264.204 229.647ZM264.204 244.258C262.352 244.258 261.117 242.2 261.117 237.673C261.117 233.145 262.352 231.293 264.204 231.293C266.056 231.293 267.291 233.145 267.291 237.673C267.291 242.2 266.056 244.258 264.204 244.258Z" fill="#56A4FE"></path>
                    </g>
                </g>
                <g opacity="0.29">
                    <g opacity="0.29">
                        <path opacity="0.29" d="M237.45 283.771C234.363 283.771 232.305 286.651 232.305 291.796C232.305 297.146 234.157 300.027 237.45 300.027C240.537 300.027 242.595 297.146 242.595 291.796C242.595 286.651 240.743 283.771 237.45 283.771ZM237.45 298.381C235.598 298.381 234.363 296.323 234.363 291.796C234.363 287.269 235.598 285.417 237.45 285.417C239.302 285.417 240.537 287.269 240.537 291.796C240.537 296.323 239.302 298.381 237.45 298.381Z" fill="#56A4FE"></path>
                    </g>
                </g>
                <g opacity="0.29">
                    <path opacity="0.29" d="M265.643 283.977H263.996C263.173 284.388 262.144 284.8 260.704 285.211V286.446H263.585V297.97H259.881V299.616H268.936V297.97H265.643V283.977Z" fill="#56A4FE"></path>
                </g>
                <g opacity="0.29">
                    <path opacity="0.29" d="M238.89 311.552H237.243C236.42 311.963 235.391 312.375 233.95 312.786V314.021H236.832V325.545H233.127V327.191H242.182V325.545H238.89V311.552Z" fill="#56A4FE"></path>
                </g>
                <g opacity="0.29">
                    <path opacity="0.29" d="M264.203 311.346C261.116 311.346 259.058 314.227 259.058 319.371C259.058 324.722 260.91 327.603 264.203 327.603C267.29 327.603 269.348 324.722 269.348 319.371C269.142 314.227 267.29 311.346 264.203 311.346ZM264.203 325.956C262.351 325.956 261.116 323.898 261.116 319.371C261.116 314.844 262.351 312.992 264.203 312.992C266.055 312.992 267.29 314.844 267.29 319.371C267.29 324.104 266.055 325.956 264.203 325.956Z" fill="#56A4FE"></path>
                </g>
                <g opacity="0.29">
                    <path opacity="0.29" d="M292.808 311.552H291.161C290.338 311.963 289.309 312.375 287.869 312.786V314.021H290.75V325.545H287.046V327.191H296.1V325.545H292.808V311.552Z" fill="#56A4FE"></path>
                </g>
                <g opacity="0.29">
                    <path opacity="0.29" d="M211.52 339.331H209.873C209.05 339.742 208.021 340.154 206.581 340.565V341.8H209.462V353.324H205.758V354.97H214.812V353.324H211.52V339.331Z" fill="#56A4FE"></path>
                </g>
                <g opacity="0.29">
                    <path opacity="0.29" d="M238.89 339.331H237.243C236.42 339.742 235.391 340.154 233.95 340.565V341.8H236.832V353.324H233.127V354.97H242.182V353.324H238.89V339.331Z" fill="#56A4FE"></path>
                </g>
                <g opacity="0.29">
                    <path opacity="0.29" d="M264.203 338.919C261.116 338.919 259.058 341.8 259.058 346.945C259.058 352.295 260.91 355.176 264.203 355.176C267.29 355.176 269.348 352.295 269.348 346.945C269.142 341.8 267.29 338.919 264.203 338.919ZM264.203 353.53C262.351 353.53 261.116 351.472 261.116 346.945C261.116 342.418 262.351 340.566 264.203 340.566C266.055 340.566 267.29 342.418 267.29 346.945C267.29 351.678 266.055 353.53 264.203 353.53Z" fill="#56A4FE"></path>
                </g>
                <g opacity="0.29">
                    <path opacity="0.29" d="M291.368 338.919C288.281 338.919 286.223 341.8 286.223 346.945C286.223 352.295 288.076 355.176 291.368 355.176C294.455 355.176 296.513 352.295 296.513 346.945C296.513 341.8 294.455 338.919 291.368 338.919ZM291.368 353.53C289.516 353.53 288.281 351.472 288.281 346.945C288.281 342.418 289.516 340.566 291.368 340.566C293.22 340.566 294.455 342.418 294.455 346.945C294.455 351.678 293.22 353.53 291.368 353.53Z" fill="#56A4FE"></path>
                </g>
                <g opacity="0.29">
                    <g opacity="0.29">
                        <path opacity="0.29" d="M478.846 283.564C475.759 283.564 473.701 286.445 473.701 291.59C473.701 296.94 475.553 299.821 478.846 299.821C481.933 299.821 483.991 296.94 483.991 291.59C483.991 286.445 481.933 283.564 478.846 283.564ZM478.846 298.175C476.994 298.175 475.759 296.117 475.759 291.59C475.759 287.063 476.994 285.211 478.846 285.211C480.698 285.211 481.933 287.063 481.933 291.59C481.933 296.323 480.698 298.175 478.846 298.175Z" fill="#56A4FE"></path>
                    </g>
                </g>
                <g opacity="0.29">
                    <path opacity="0.29" d="M531.529 283.974H529.883C529.06 284.385 528.031 284.797 526.59 285.208V286.443H529.471V297.967H525.767V299.613H534.822V297.967H531.529V283.974Z" fill="#56A4FE"></path>
                </g>
                <g opacity="0.29">
                    <path opacity="0.29" d="M504.776 283.564C501.689 283.564 499.631 286.445 499.631 291.59C499.631 296.94 501.483 299.821 504.776 299.821C507.863 299.821 509.921 296.94 509.921 291.59C509.715 286.445 507.863 283.564 504.776 283.564ZM504.776 298.175C502.924 298.175 501.689 296.117 501.689 291.59C501.689 287.063 502.924 285.211 504.776 285.211C506.628 285.211 507.863 287.063 507.863 291.59C507.863 296.323 506.628 298.175 504.776 298.175Z" fill="#56A4FE"></path>
                </g>
                <g opacity="0.29">
                    <path opacity="0.29" d="M480.287 311.549H478.64C477.817 311.961 476.788 312.372 475.348 312.784V314.019H478.229V325.543H474.524V327.189H483.579V325.543H480.287V311.549Z" fill="#56A4FE"></path>
                </g>
                <g opacity="0.29">
                    <g opacity="0.29">
                        <path opacity="0.29" d="M530.089 311.14C527.002 311.14 524.944 314.021 524.944 319.165C524.944 324.516 526.796 327.397 530.089 327.397C533.176 327.397 535.233 324.516 535.233 319.165C535.233 314.021 533.176 311.14 530.089 311.14ZM530.089 325.75C528.237 325.75 527.002 323.692 527.002 319.165C527.002 314.638 528.237 312.786 530.089 312.786C531.941 312.786 533.176 314.638 533.176 319.165C533.176 323.898 531.941 325.75 530.089 325.75Z" fill="#56A4FE"></path>
                    </g>
                </g>
                <g opacity="0.29">
                    <path opacity="0.29" d="M559.106 311.549H557.46C556.636 311.961 555.607 312.372 554.167 312.784V314.019H557.048V325.543H553.344V327.189H562.399V325.543H559.106V311.549Z" fill="#56A4FE"></path>
                </g>
                <g opacity="0.29">
                    <path opacity="0.29" d="M504.776 311.14C501.689 311.14 499.631 314.021 499.631 319.165C499.631 324.516 501.483 327.397 504.776 327.397C507.863 327.397 509.921 324.516 509.921 319.165C509.715 314.021 507.863 311.14 504.776 311.14ZM504.776 325.75C502.924 325.75 501.689 323.692 501.689 319.165C501.689 314.638 502.924 312.786 504.776 312.786C506.628 312.786 507.863 314.638 507.863 319.165C507.863 323.898 506.628 325.75 504.776 325.75Z" fill="#56A4FE"></path>
                </g>
                <g opacity="0.29">
                    <path opacity="0.29" d="M584.213 311.14C581.126 311.14 579.068 314.021 579.068 319.165C579.068 324.516 580.92 327.397 584.213 327.397C587.3 327.397 589.358 324.516 589.358 319.165C589.358 314.021 587.3 311.14 584.213 311.14ZM584.213 325.75C582.361 325.75 581.126 323.692 581.126 319.165C581.126 314.638 582.361 312.786 584.213 312.786C586.065 312.786 587.3 314.638 587.3 319.165C587.3 323.898 586.065 325.75 584.213 325.75Z" fill="#56A4FE"></path>
                </g>
                <g opacity="0.29">
                    <path opacity="0.29" d="M478.846 338.921C475.759 338.921 473.701 341.802 473.701 346.947C473.701 352.297 475.553 355.178 478.846 355.178C481.933 355.178 483.991 352.297 483.991 346.947C483.991 341.597 481.933 338.921 478.846 338.921ZM478.846 353.532C476.994 353.532 475.759 351.474 475.759 346.947C475.759 342.42 476.994 340.568 478.846 340.568C480.698 340.568 481.933 342.42 481.933 346.947C481.933 351.474 480.698 353.532 478.846 353.532Z" fill="#56A4FE"></path>
                </g>
                <g opacity="0.29">
                    <path opacity="0.29" d="M531.529 339.125H529.883C529.06 339.536 528.031 339.948 526.59 340.359V341.594H529.471V353.118H525.767V354.764H534.822V353.118H531.529V339.125Z" fill="#56A4FE"></path>
                </g>
                <g opacity="0.29">
                    <path opacity="0.29" d="M559.106 339.125H557.46C556.636 339.536 555.607 339.948 554.167 340.359V341.594H557.048V353.118H553.344V354.764H562.399V353.118H559.106V339.125Z" fill="#56A4FE"></path>
                </g>
                <g opacity="0.29">
                    <path opacity="0.29" d="M504.776 338.921C501.689 338.921 499.631 341.802 499.631 346.947C499.631 352.297 501.483 355.178 504.776 355.178C507.863 355.178 509.921 352.297 509.921 346.947C509.715 341.597 507.863 338.921 504.776 338.921ZM504.776 353.532C502.924 353.532 501.689 351.474 501.689 346.947C501.689 342.42 502.924 340.568 504.776 340.568C506.628 340.568 507.863 342.42 507.863 346.947C507.863 351.474 506.628 353.532 504.776 353.532Z" fill="#56A4FE"></path>
                </g>
                <g opacity="0.29">
                    <path opacity="0.29" d="M584.213 338.921C581.126 338.921 579.068 341.802 579.068 346.947C579.068 352.297 580.92 355.178 584.213 355.178C587.3 355.178 589.358 352.297 589.358 346.947C589.358 341.597 587.3 338.921 584.213 338.921ZM584.213 353.532C582.361 353.532 581.126 351.474 581.126 346.947C581.126 342.42 582.361 340.568 584.213 340.568C586.065 340.568 587.3 342.42 587.3 346.947C587.3 351.474 586.065 353.532 584.213 353.532Z" fill="#56A4FE"></path>
                </g>
                <g opacity="0.29">
                    <path opacity="0.29" d="M611.378 338.921C608.291 338.921 606.233 341.802 606.233 346.947C606.233 352.297 608.085 355.178 611.378 355.178C614.464 355.178 616.522 352.297 616.522 346.947C616.522 341.597 614.67 338.921 611.378 338.921ZM611.378 353.532C609.525 353.532 608.291 351.474 608.291 346.947C608.291 342.42 609.525 340.568 611.378 340.568C613.23 340.568 614.464 342.42 614.464 346.947C614.464 351.474 613.23 353.532 611.378 353.532Z" fill="#56A4FE"></path>
                </g>
                <path d="M565.897 509.101L519.799 398.801L527.208 395.92L569.189 507.866C569.601 509.101 569.189 510.13 568.366 510.542C567.337 510.953 566.308 510.336 565.897 509.101Z" fill="#FED042"></path>
                <path opacity="0.37" d="M528.237 399.418L523.504 401.27L566.926 510.541C566.515 510.335 565.897 509.924 565.691 509.306L519.594 399.006L527.002 396.125L528.237 399.418Z" fill="black"></path>
                <path d="M492.637 508.485L490.373 388.925H498.399L496.135 508.485C496.135 509.72 495.312 510.749 494.489 510.749C493.46 510.749 492.637 509.72 492.637 508.485Z" fill="#FED042"></path>
                <path opacity="0.37" d="M498.398 392.012H492.43L494.693 510.543H494.488C493.459 510.543 492.841 509.514 492.841 508.279L490.578 388.719H498.604L498.398 392.012Z" fill="black"></path>
                <path d="M428.222 502.106L474.319 391.806L466.911 388.925L424.929 500.871C424.517 502.106 424.929 503.135 425.752 503.547C426.575 503.958 427.604 503.341 428.222 502.106Z" fill="#FED042"></path>
                <g opacity="0.37">
                    <g opacity="0.37">
                        <g opacity="0.37">
                            <path opacity="0.37" d="M424.929 500.871L466.911 388.925L474.319 391.806L473.496 393.864L468.969 392.012L427.193 503.341C426.781 503.546 426.164 503.752 425.752 503.546C424.929 503.135 424.517 501.9 424.929 500.871Z" fill="black"></path>
                        </g>
                    </g>
                </g>
                <path d="M441.599 398.596C449.624 405.181 461.56 411.148 492.018 411.766C531.942 412.589 552.933 408.062 564.251 387.483C583.184 353.118 559.518 241.995 522.064 266.483C490.783 287.061 484.609 352.706 480.493 361.761C476.378 371.021 422.048 382.75 441.599 398.596Z" fill="#FED042"></path>
                <path d="M485.226 403.327C525.15 404.15 546.141 399.623 557.46 379.045C570.425 355.585 563.428 296.32 545.935 268.951C568.572 289.941 579.068 361.142 564.457 387.482C553.138 408.06 532.147 412.587 492.223 411.764C461.766 411.147 449.83 405.179 441.804 398.594C439.129 396.33 437.688 394.273 437.482 392.215C445.508 397.977 458.062 402.71 485.226 403.327Z" fill="#F5C057"></path>
                <path d="M537.085 348.178C537.085 348.178 508.685 351.47 502.1 351.47C495.515 351.676 495.926 348.178 495.926 348.178C495.515 340.975 494.28 324.101 493.045 318.339C491.81 312.989 491.193 310.931 490.164 305.786C487.694 294.468 487.9 292.205 485.225 278.211L502.1 264.63C502.1 264.63 503.952 269.774 510.949 269.98C520.415 270.186 523.502 263.395 523.502 263.395L546.551 278.829L548.815 316.281L546.14 347.149" fill="#56A4FE"></path>
                <path d="M520.828 245.903C520.21 248.167 519.593 250.225 518.77 252.488C517.329 256.398 515.066 257.839 510.95 257.839C508.069 257.839 505.188 258.045 502.306 258.045C500.043 258.045 497.367 258.25 495.515 256.604C493.663 254.958 493.663 252.488 493.252 250.225C492.84 247.55 492.428 244.669 492.017 241.994C491.399 236.643 491.194 231.087 491.194 225.531C491.194 224.708 491.194 224.09 491.399 223.267C491.399 223.061 491.605 222.65 491.811 222.444C492.017 222.238 492.428 222.033 492.84 222.033C498.191 221.209 503.747 220.798 509.303 221.004C513.213 221.209 517.329 221.621 520.416 223.885C523.503 226.354 524.944 230.264 526.384 233.762C526.59 234.38 526.796 235.203 526.178 235.408" fill="#F4C5BE"></path>
                <path d="M437.481 479.877C437.481 479.877 438.509 486.256 439.333 488.52C440.156 490.783 447.359 488.725 447.77 487.285C448.182 485.845 445.506 475.35 445.506 475.35" fill="#F4C5BE"></path>
                <path d="M450.446 488.931C451.063 491.195 451.886 495.928 451.886 495.928L444.684 499.014L443.449 497.985C443.449 497.985 441.597 500.249 439.539 501.072C437.893 501.895 434.394 502.718 432.542 502.924C426.162 503.542 418.754 502.924 418.548 502.101C416.902 498.397 425.339 497.574 426.985 496.957C431.719 495.722 437.069 490.989 437.687 488.519C438.098 486.667 437.481 486.256 438.716 486.256C438.716 486.256 439.745 486.256 440.568 487.079C441.803 488.519 443.861 489.137 445.713 488.314C446.742 487.902 447.771 487.079 448.182 486.256C447.976 486.462 449.829 486.667 450.446 488.931Z" fill="#132333"></path>
                <path d="M469.173 395.922C457.854 398.185 443.861 398.391 432.542 396.745C434.188 401.272 438.098 407.034 439.539 413.619C444.478 434.815 446.124 463.213 447.359 480.91C447.359 480.91 445.095 485.437 437.481 481.939C426.162 454.158 406.612 397.774 406.818 385.632C407.024 369.993 445.918 366.289 474.318 362.379" fill="black"></path>
                <path d="M518.769 364.846C527.824 371.431 469.173 395.919 469.173 395.919C462.588 397.154 456.414 397.771 450.034 397.771C449.417 396.537 448.8 395.508 448.594 394.067C448.182 392.421 448.388 390.569 448.182 388.923C447.565 385.63 445.301 382.749 442.42 381.103C439.539 379.251 436.246 378.634 432.748 378.016C424.928 376.781 410.934 377.605 410.934 377.605C428.632 364.64 464.646 362.994 481.315 361.759C484.608 367.11 517.534 363.817 518.769 364.846Z" fill="black"></path>
                <path d="M456.003 494.697C456.003 494.697 456.003 501.282 456.415 503.546C456.826 505.809 464.235 505.192 465.058 503.752C465.676 502.517 464.852 491.61 464.852 491.61" fill="#F4C5BE"></path>
                <path d="M467.116 505.808C467.322 508.277 467.322 512.804 467.322 512.804L459.707 514.656L458.678 513.422C458.678 513.422 456.621 515.274 454.151 515.891C452.505 516.302 448.8 516.714 446.948 516.508C440.569 516.097 431.925 514.245 431.72 513.216C430.896 509.306 439.128 509.923 440.98 509.717C445.919 509.306 453.534 505.602 454.563 503.132C455.18 501.28 454.768 500.869 455.797 501.075C455.797 501.075 456.826 501.28 457.444 502.309C458.473 503.955 460.325 504.779 462.177 504.367C463.206 504.161 464.235 503.544 465.058 502.721C465.264 502.927 466.91 503.544 467.116 505.808Z" fill="#132333"></path>
                <path d="M538.32 363.406C538.32 363.406 520.416 365.258 498.602 364.64C493.457 364.64 455.179 371.843 451.475 378.428C445.507 389.129 455.385 451.481 454.562 496.342C454.562 496.342 459.089 500.252 467.321 496.547C469.379 474.529 482.344 422.671 473.289 398.595C494.486 401.476 511.567 404.151 530.705 397.772C535.233 396.331 538.526 393.039 540.583 387.277C542.641 381.515 541.612 368.756 538.32 363.406Z" fill="black"></path>
                <path d="M502.101 264.63C502.101 264.63 497.985 264.836 497.162 264.836C493.869 265.041 490.371 265.453 487.078 266.688C482.551 268.334 479.258 272.655 475.554 275.948C471.85 279.241 453.328 296.938 449.83 297.555C446.331 298.173 415.668 277.183 415.668 277.183L408.259 284.591C408.259 284.591 441.392 315.253 451.476 315.253C456.209 315.253 482.757 301.259 491.194 295.909L502.101 264.63Z" fill="#56A4FE"></path>
                <path opacity="0.25" d="M451.475 309.902C444.683 310.313 413.403 286.442 409.699 283.562L408.258 285.002C408.258 285.002 441.391 315.664 451.475 315.664C455.385 315.664 474.523 305.992 485.636 299.613L488.517 297.966L486.871 287.677C486.871 287.883 458.677 309.49 451.475 309.902Z" fill="#333333"></path>
                <g opacity="0.25">
                    <path opacity="0.25" d="M535.645 286.235C531.941 303.315 531.118 316.691 530.089 329.038C516.712 334.182 507.451 341.385 494.486 347.147C494.486 347.147 488.107 345.912 487.078 349.822C486.46 352.085 498.396 351.262 498.396 351.262C510.538 351.262 542.848 345.089 544.906 344.471C546.964 343.854 553.343 303.521 553.549 281.502C553.549 278.415 553.549 274.917 551.491 272.653C550.462 271.418 549.021 270.595 547.581 269.772C539.143 265.451 532.764 264.216 523.297 263.599" fill="#CE4A30"></path>
                </g>
                <path d="M500.042 348.179C498.602 346.327 495.926 346.122 493.663 346.122C492.016 346.122 490.164 346.327 488.518 346.533C487.695 346.739 486.871 346.739 486.871 347.562C486.871 348.385 490.576 347.562 492.634 348.179C488.724 348.591 484.813 348.591 480.903 348.591C480.492 348.591 479.874 348.591 479.463 348.797C479.051 349.003 478.64 349.414 478.64 349.826C478.64 350.237 478.845 350.443 479.257 350.649C480.286 351.678 481.932 352.089 483.373 352.295C489.341 353.324 495.72 353.118 501.277 350.649" fill="#FFB9B0"></path>
                <path d="M534.821 285.823C534.41 304.138 533.175 312.575 533.587 330.684C524.326 332.742 508.891 340.356 495.926 346.323C495.926 346.323 496.338 350.645 497.573 352.909C498.602 353.32 543.053 343.648 546.551 340.562C549.638 337.681 553.754 303.521 553.96 281.502C553.96 278.415 553.96 274.917 551.902 272.653C550.873 271.418 549.433 270.595 547.992 269.772C539.555 265.451 533.175 264.216 523.708 263.599" fill="#4D88CB"></path>
                <path d="M419.576 353.115H495.72L482.137 308.666C481.314 306.197 479.05 304.55 476.581 304.55H409.904C407.434 304.55 405.582 307.02 406.2 309.489L419.576 353.115Z" fill="#9A9FB3"></path>
                <path d="M418.548 353.116H493.457L479.874 308.666C479.051 306.197 476.787 304.551 474.318 304.551H407.641C405.171 304.551 403.319 307.02 403.936 309.49L416.901 352.087C417.313 352.704 417.93 353.116 418.548 353.116Z" fill="#f7f7f7"></path>
                <path d="M507.452 234.175C507.246 233.558 505.806 233.352 504.365 233.558C502.925 233.764 498.809 234.175 497.986 234.999C497.163 235.616 497.163 236.028 496.751 236.233C496.339 236.233 496.339 235.822 495.31 235.41C494.282 234.999 492.018 235.204 490.371 235.41C488.931 235.616 487.49 236.028 487.49 236.645C487.49 237.262 487.696 238.497 488.108 238.703C488.519 238.908 488.519 238.908 489.548 241.584C490.166 243.024 491.195 244.053 493.253 243.642C495.722 243.024 495.928 240.143 496.134 239.114C496.339 237.88 496.545 237.674 496.957 237.674C497.368 237.674 497.574 237.674 497.986 238.908C498.397 239.937 498.809 242.613 501.484 242.818C504.777 243.024 506.218 241.789 506.835 239.732C507.452 236.851 507.246 236.851 507.658 236.439C507.864 236.233 510.128 236.645 510.128 236.645V235.822C509.716 235.41 507.452 234.381 507.452 234.175ZM495.105 239.937C495.105 241.378 494.282 242.818 492.635 243.024C490.989 243.23 490.371 242.407 489.548 240.349C488.725 238.703 488.725 237.262 489.137 236.851C489.342 236.439 490.166 236.439 492.224 236.233C494.076 236.028 494.693 236.028 495.105 236.851C495.105 237.262 495.31 238.497 495.105 239.937ZM506.218 238.497C505.806 240.555 505.189 241.584 502.925 241.789C499.838 242.201 499.426 240.966 498.809 239.526C498.397 238.085 498.192 236.851 498.192 236.645C498.192 235.822 499.015 235.616 500.867 235.204C502.719 234.793 505.189 234.381 505.6 234.793C506.012 235.204 506.423 236.645 506.218 238.497Z" fill="#26282D"></path>
                <path d="M527.619 229.441C527.414 227.795 527.208 226.354 526.796 224.914C525.767 221.004 523.298 217.712 519.799 215.654C515.272 213.184 508.892 212.567 503.953 214.008C501.072 214.831 500.043 216.271 498.397 216.271C497.162 216.271 495.722 215.448 494.281 214.831C482.962 210.715 484.814 221.827 486.049 224.914C486.667 226.354 489.136 227.178 489.548 227.795C489.959 228.412 489.754 231.087 490.165 232.322C490.371 233.557 491.606 233.968 491.606 233.968C491.606 233.968 491.606 230.47 491.811 229.853C492.017 228.618 492.429 227.178 493.458 226.56C494.693 225.737 496.133 225.737 497.574 225.326C499.014 225.12 505.6 226.354 506.011 226.766C508.069 228.618 508.687 232.734 509.304 235.203C509.51 236.438 509.921 237.055 510.333 237.055C510.744 233.763 511.773 233.557 513.831 234.792C514.86 235.409 515.478 237.467 515.478 239.319C515.478 241.377 514.243 243.846 512.185 244.258C511.362 244.463 513.831 248.991 514.86 250.225C515.272 250.637 515.683 251.048 516.095 251.254C516.507 251.46 516.918 251.666 517.536 251.666C518.153 251.872 518.565 251.872 519.182 252.077C520.005 252.283 520.623 252.489 521.446 252.283C522.68 251.872 523.298 250.637 523.915 249.608C524.738 247.756 525.767 245.904 526.591 244.052C527.825 239.936 528.237 234.586 527.619 229.441Z" fill="#26282D"></path>
                <path d="M214.609 509.101L260.706 398.801L253.298 395.92L211.316 507.866C210.904 509.101 211.316 510.13 212.139 510.542C213.168 510.953 214.197 510.336 214.609 509.101Z" fill="#FED042"></path>
                <path opacity="0.37" d="M252.268 399.417L257.001 401.269L213.373 510.54C213.785 510.334 214.402 509.923 214.608 509.305L260.705 399.005L253.297 396.125L252.268 399.417Z" fill="black"></path>
                <path d="M287.664 508.483L289.928 388.923H281.902L284.166 508.483C284.166 509.718 284.989 510.747 285.812 510.747C286.841 510.747 287.664 509.718 287.664 508.483Z" fill="#FED042"></path>
                <path opacity="0.37" d="M282.108 392.011H288.076L285.813 510.542H286.019C287.048 510.542 287.665 509.513 287.665 508.279L289.929 388.719H281.903L282.108 392.011Z" fill="black"></path>
                <path d="M357.427 509.102L311.33 398.802L318.738 395.921L360.72 507.867C361.131 509.102 360.72 510.131 359.897 510.543C358.868 510.954 357.839 510.337 357.427 509.102Z" fill="#723E24"></path>
                <g opacity="0.37">
                    <g opacity="0.37">
                        <g opacity="0.37">
                            <path opacity="0.37" d="M360.515 507.866L318.533 395.92L311.125 398.801L311.948 400.859L316.475 399.007L358.251 510.336C358.663 510.542 359.28 510.747 359.692 510.542C360.721 510.13 361.132 509.101 360.515 507.866Z" fill="black"></path>
                        </g>
                    </g>
                </g>
                <path d="M338.702 398.596C330.676 405.181 318.74 411.148 288.283 411.766C248.359 412.589 227.368 408.062 216.05 387.483C197.117 353.118 220.783 241.995 258.237 266.483C289.518 287.061 295.692 352.706 299.807 361.761C304.129 371.021 358.253 382.75 338.702 398.596Z" fill="#FED042"></path>
                <path d="M295.279 403.327C255.356 404.15 234.365 399.623 223.046 379.045C210.081 355.585 217.078 296.32 234.57 268.951C211.933 289.941 201.438 361.142 216.049 387.482C227.368 408.06 248.359 412.587 288.282 411.764C318.74 411.147 330.676 405.179 338.702 398.594C341.377 396.33 342.818 394.273 343.023 392.215C334.792 397.977 322.444 402.71 295.279 403.327Z" fill="#F5C057"></path>
                <path d="M345.492 480.495C346.11 483.376 340.553 491.196 347.962 497.575C355.37 503.955 372.245 510.951 360.927 511.157C349.814 511.363 339.113 508.893 333.351 506.012C327.794 503.131 332.116 498.81 325.119 496.546C315.858 493.665 316.064 493.048 320.386 482.965C326.971 469.177 343.846 471.235 345.492 480.495Z" fill="#0A1828"></path>
                <path d="M356.399 490.374C357.634 492.843 363.808 498.605 372.451 502.515C381.094 506.425 399.204 508.071 389.12 511.569C379.036 514.862 367.306 512.804 361.338 511.981C355.37 510.952 349.608 510.952 342.611 510.952C333.35 510.952 333.35 510.335 334.585 499.84C336.026 485.435 352.077 482.348 356.399 490.374Z" fill="#132333"></path>
                <path d="M334.585 484.611L338.084 493.46C338.084 493.46 346.933 495.518 351.255 493.46C355.576 491.196 353.724 489.344 353.724 489.344L350.02 476.38L334.585 484.611Z" fill="#F4C5BE"></path>
                <path d="M294.25 366.697C294.25 366.697 332.322 374.928 346.11 378.426C359.898 381.719 370.599 387.687 364.22 410.734C357.84 433.782 346.933 475.762 346.933 475.762H322.444L335.408 400.239L263.587 391.802L250.416 362.169L294.25 366.697Z" fill="#221C7D"></path>
                <path d="M238.275 366.699C239.921 378.635 236.423 392.216 254.944 397.567C273.259 402.917 302.071 403.329 302.071 403.329L330.882 489.758C330.882 489.758 338.908 490.992 348.786 487.906C352.901 486.671 354.342 481.526 354.342 481.526L328.206 393.245C326.148 386.249 320.592 381.104 313.595 379.252L269.144 365.67L238.275 366.699Z" fill="#2D24A3"></path>
                <path d="M244.86 326.777C246.712 331.304 247.123 336.448 245.889 341.181C243.831 350.853 246.094 351.471 246.094 351.471C246.094 351.471 259.059 359.702 269.966 363.2C277.786 365.67 284.372 365.258 284.166 356.615V356.409C284.166 355.792 284.166 355.38 284.166 354.969C283.754 335.625 287.87 334.802 288.899 313.195C289.928 290.97 283.96 278.623 278.198 273.273C272.23 267.923 264.41 267.717 249.181 271.215C237.863 273.89 234.158 276.977 234.158 285.208C234.158 288.089 234.57 291.382 235.393 295.498C237.245 306.404 241.773 318.957 244.86 326.777Z" fill="#B1C9DD"></path>
                <path opacity="0.38" d="M244.86 326.776C246.712 331.303 247.123 336.448 245.889 341.181C243.831 350.852 246.094 351.47 246.094 351.47C246.094 351.47 259.059 359.701 269.966 363.199L280.05 362.17L284.166 359.084V356.614C284.166 355.997 284.166 355.585 284.166 355.174C281.902 355.38 276.552 355.585 268.937 354.762C262.969 354.145 257.619 352.293 253.914 351.058C251.239 350.029 249.799 347.354 250.21 344.473C250.828 340.769 251.651 335.213 251.651 331.097C251.651 326.776 249.593 319.779 248.152 314.429C246.918 310.519 246.506 306.403 246.712 302.082C247.123 294.879 246.712 288.089 246.712 288.089L238.686 283.767L234.158 285.413C234.158 288.294 234.57 291.587 235.393 295.703C237.245 306.403 241.773 318.956 244.86 326.776Z" fill="#61708E"></path>
                <path d="M281.287 233.76C281.287 233.76 282.316 236.641 280.67 238.698L274.496 230.261H278.818L281.287 233.76Z" fill="#232121"></path>
                <path d="M281.286 233.761C281.286 233.761 272.848 227.176 260.089 235.202L249.594 232.527C249.594 232.527 249.182 232.321 249.388 230.88C249.594 229.234 250.828 214.006 269.144 217.299C279.639 219.356 286.019 226.765 281.286 233.761Z" fill="#232121"></path>
                <path d="M256.589 267.304C256.589 267.304 255.148 268.127 253.502 270.39C253.502 270.39 255.56 271.419 257.412 272.448C259.058 273.477 267.084 279.033 267.084 279.033L269.348 274.3C269.348 274.3 261.116 268.538 256.589 267.304Z" fill="#93A7BF"></path>
                <path d="M269.349 274.305C269.349 274.305 272.23 275.334 273.053 277.392C273.053 277.392 274.494 274.716 272.642 269.778C272.642 269.778 271.201 268.337 269.966 267.72L269.349 274.305Z" fill="#93A7BF"></path>
                <path d="M247.123 360.937C247.123 360.937 248.563 362.789 248.975 362.995C249.387 363.201 249.387 362.789 249.387 362.377C249.387 361.966 247.329 360.525 247.123 360.937Z" fill="#E5BB98"></path>
                <path d="M222.634 312.783C222.634 312.783 214.608 350.03 218.313 352.911C222.223 355.792 265.439 356.203 269.349 356.821C273.465 357.438 289.929 360.113 298.366 352.705C299.395 351.676 293.221 352.088 291.781 349.001C290.34 345.708 292.604 346.12 291.781 344.68C288.694 339.535 271.819 345.914 271.819 345.914C271.819 345.914 243.831 341.181 235.805 343.445C240.744 337.477 241.773 315.664 241.773 315.664L222.634 312.783Z" fill="#F4C5BE"></path>
                <path d="M220.576 314.636C220.576 314.636 225.927 280.476 236.422 275.743C246.712 271.216 254.121 285.826 250.211 301.054C246.506 316.282 245.477 321.839 245.477 321.839C245.477 321.839 229.837 323.485 220.576 314.636Z" fill="#B1C9DD"></path>
                <path d="M215.226 527.208H208.023L213.785 358.26H228.602L215.226 527.208Z" fill="#E6E7E8"></path>
                <path opacity="0.2" d="M212.962 379.25H226.956L228.603 358.26H213.786L212.962 379.25Z" fill="black"></path>
                <path d="M645.334 527.208H652.742L646.774 358.26H632.163L645.334 527.208Z" fill="#E6E7E8"></path>
                <path opacity="0.2" d="M647.597 379.25H633.809L632.163 358.26H646.774L647.597 379.25Z" fill="black"></path>
                <path d="M661.179 365.874H199.38C195.881 365.874 193 362.993 193 359.495V358.26C193 354.762 195.881 351.881 199.38 351.881H661.179C664.678 351.881 667.559 354.762 667.559 358.26V359.495C667.559 362.993 664.678 365.874 661.179 365.874Z" fill="#E6E7E8"></path>
                <path d="M193.412 361.141C194.235 363.816 196.499 365.668 199.38 365.668H661.18C664.061 365.668 666.53 363.61 667.148 361.141H193.412Z" fill="#D2D4D6"></path>
                <path d="M245.889 351.883H352.284V349.002H248.358C247.123 349.002 245.889 350.031 245.889 351.472V351.883Z" fill="#9A9FB3"></path>
                <path d="M282.109 351.884H354.136L361.133 307.846C361.545 305.583 359.898 303.73 357.635 303.73H293.839C291.575 303.73 289.517 305.583 289.106 307.846L282.109 351.884Z" fill="url(#paint1_linear)"></path>
                <path opacity="0.2" d="M293.839 303.73H295.897C293.633 303.73 291.575 305.583 291.163 307.846L284.167 351.884H282.109L289.106 307.846C289.517 305.583 291.575 303.73 293.839 303.73Z" fill="#212226"></path>
                <path opacity="0.2" d="M314.007 327.807C313.39 332.128 316.271 335.626 320.592 335.626C324.914 335.626 329.03 332.128 329.647 327.807C330.265 323.485 327.383 319.987 323.062 319.987C318.74 319.987 314.83 323.485 314.007 327.807Z" fill="#212226"></path>
                <path d="M624.343 494.699L625.578 503.136H631.958L634.839 502.724L632.781 489.76L624.343 494.699Z" fill="#F4C5BE"></path>
                <path d="M633.604 492.435C632.986 492.641 632.369 493.052 631.752 493.258C628.253 494.493 623.52 495.11 623.52 495.11C615.906 482.557 596.149 422.057 596.149 422.057C594.297 414.443 605.822 424.115 610.555 423.909C612.201 423.909 613.848 424.115 614.877 424.527C619.404 426.379 626.195 439.343 626.195 439.343C626.195 439.343 628.253 443.87 630.311 453.13C632.781 462.185 633.604 492.435 633.604 492.435Z" fill="#B1C9DD"></path>
                <path d="M633.603 492.434C632.986 492.64 632.369 493.051 631.751 493.257C631.34 489.553 630.516 483.585 629.487 474.325C627.224 453.335 613.847 429.259 610.76 423.908C612.407 423.908 614.053 424.114 615.082 424.526C619.609 426.378 626.401 439.342 626.401 439.342C626.401 439.342 628.458 443.869 630.516 453.129C632.78 462.184 633.603 492.434 633.603 492.434Z" fill="#93A7BF"></path>
                <path d="M625.165 501.898C625.165 501.898 627.841 501.898 630.105 501.075C632.574 500.046 634.22 498.4 634.22 498.4C634.22 498.4 641.012 502.516 641.012 509.924C641.012 510.335 640.806 510.747 640.394 510.747C640.394 510.747 624.137 517.949 618.58 519.801C615.082 521.036 609.731 522.065 609.731 522.065C609.319 522.065 608.908 522.065 608.702 521.653C608.496 520.83 608.29 519.596 609.937 518.361C612.406 516.509 615.082 514.863 617.14 513.216C618.992 511.57 621.05 507.249 622.49 506.014C624.342 504.779 625.165 501.898 625.165 501.898Z" fill="#1A1A47"></path>
                <path d="M658.71 538.53L660.974 412.385H652.537L654.8 538.53C654.8 539.765 655.624 540.794 656.653 540.794C657.887 541 658.71 539.971 658.71 538.53Z" fill="#FED042"></path>
                <path d="M581.538 523.921L630.311 407.653L622.491 404.566L578.245 522.686C577.834 523.921 578.245 525.155 579.068 525.567C579.891 525.773 581.126 524.95 581.538 523.921Z" fill="#FED042"></path>
                <path d="M732.179 523.921L683.406 407.653L691.226 404.566L735.472 522.686C735.884 523.921 735.472 525.155 734.649 525.567C733.826 525.773 732.591 524.95 732.179 523.921Z" fill="#FED042"></path>
                <g opacity="0.37">
                    <g opacity="0.37">
                        <g opacity="0.37">
                            <path opacity="0.37" d="M621.255 408.065L626.194 410.123L580.303 525.361C580.92 525.155 581.332 524.538 581.537 523.921L630.31 407.653L622.49 404.566L621.255 408.065Z" fill="black"></path>
                        </g>
                    </g>
                </g>
                <g opacity="0.37">
                    <g opacity="0.37">
                        <g opacity="0.37">
                            <path opacity="0.37" d="M652.742 415.884H658.916L656.653 541H656.858C657.887 541 658.71 539.971 658.71 538.736L660.974 412.591H652.537L652.742 415.884Z" fill="black"></path>
                        </g>
                    </g>
                </g>
                <g opacity="0.37">
                    <g opacity="0.37">
                        <g opacity="0.37">
                            <path opacity="0.37" d="M735.472 522.48L691.226 404.36L683.406 407.447L684.229 409.505L688.963 407.653L733.002 525.155C733.414 525.361 734.031 525.567 734.443 525.361C735.678 524.949 736.089 523.715 735.472 522.48Z" fill="black"></path>
                        </g>
                    </g>
                </g>
                <path d="M597.795 348.594H520.622L505.394 300.646C504.57 298.177 506.423 295.708 508.892 295.708H578.039C579.685 295.708 581.125 296.736 581.537 298.383L597.795 348.594Z" fill="white"></path>
                <path d="M596.56 348.592H522.68L507.658 301.467C506.834 298.998 508.687 296.734 511.156 296.734H577.216C578.862 296.734 580.303 297.763 580.714 299.204L596.56 348.592Z" fill="white"></path>
                <path d="M550.257 305.584H516.712C516.301 305.584 515.889 305.173 515.889 304.761C515.889 304.35 516.301 303.938 516.712 303.938H550.257C550.668 303.938 551.08 304.35 551.08 304.761C551.08 305.173 550.668 305.584 550.257 305.584Z" fill="#C2E0F2"></path>
                <path d="M555.401 309.7H517.946C517.535 309.7 517.123 309.289 517.123 308.877C517.123 308.466 517.535 308.054 517.946 308.054H555.401C555.812 308.054 556.224 308.466 556.224 308.877C556.43 309.289 556.018 309.7 555.401 309.7Z" fill="#C2E0F2"></path>
                <path d="M551.903 313.815H519.182C518.771 313.815 518.359 313.403 518.359 312.992C518.359 312.58 518.771 312.168 519.182 312.168H551.903C552.315 312.168 552.727 312.58 552.727 312.992C552.932 313.403 552.521 313.815 551.903 313.815Z" fill="#C2E0F2"></path>
                <path d="M546.552 318.135H520.622C520.21 318.135 519.799 317.723 519.799 317.312C519.799 316.9 520.21 316.489 520.622 316.489H546.552C546.964 316.489 547.375 316.9 547.375 317.312C547.375 317.723 546.964 318.135 546.552 318.135Z" fill="#C2E0F2"></path>
                <path d="M559.516 322.253H522.062C521.65 322.253 521.239 321.842 521.239 321.43C521.239 321.018 521.65 320.607 522.062 320.607H559.516C559.928 320.607 560.339 321.018 560.339 321.43C560.339 321.842 559.928 322.253 559.516 322.253Z" fill="#C2E0F2"></path>
                <path d="M556.019 326.573H523.298C522.886 326.573 522.474 326.162 522.474 325.75C522.474 325.339 522.886 324.927 523.298 324.927H556.019C556.43 324.927 556.842 325.339 556.842 325.75C556.842 326.162 556.43 326.573 556.019 326.573Z" fill="#C2E0F2"></path>
                <path d="M563.428 334.804H525.973C525.562 334.804 525.15 334.392 525.15 333.981C525.15 333.569 525.562 333.158 525.973 333.158H563.428C563.839 333.158 564.251 333.569 564.251 333.981C564.457 334.392 564.045 334.804 563.428 334.804Z" fill="#C2E0F2"></path>
                <path d="M564.868 339.129H527.414C527.002 339.129 526.591 338.717 526.591 338.306C526.591 337.894 527.002 337.482 527.414 337.482H564.868C565.28 337.482 565.691 337.894 565.691 338.306C565.897 338.717 565.486 339.129 564.868 339.129Z" fill="#C2E0F2"></path>
                <path d="M584.829 339.126H572.687C571.658 339.126 570.629 338.303 570.218 337.274L560.134 305.378C559.516 303.732 560.751 302.085 562.603 302.085H574.745C575.774 302.085 576.803 302.909 577.215 303.938L587.299 335.834C587.916 337.274 586.475 339.126 584.829 339.126Z" fill="#C2E0F2"></path>
                <path d="M604.174 352.092H520.416C518.975 352.092 517.946 351.063 517.946 349.623C517.946 348.182 518.975 347.153 520.416 347.153H604.174C605.614 347.153 606.643 348.182 606.643 349.623C606.643 350.857 605.614 352.092 604.174 352.092Z" fill="white"></path>
                <path d="M596.561 336.453C595.943 337.07 595.532 337.688 595.532 337.688C595.532 337.688 591.416 334.601 590.387 334.395C589.358 334.189 586.888 335.013 585.448 335.013C584.007 335.013 584.007 334.189 584.007 334.189C584.007 334.189 578.862 336.453 577.833 336.659C577.01 336.865 576.393 336.659 577.01 335.218C577.216 335.013 577.422 334.395 578.039 333.984C579.891 331.926 583.596 328.633 584.83 328.016C586.477 327.193 588.74 325.958 590.593 326.781C592.445 327.399 598.413 331.926 598.413 331.926C598.824 333.366 597.59 335.218 596.561 336.453Z" fill="#F4C5BE"></path>
                <path d="M597.795 332.13L596.561 336.452C595.943 337.069 595.532 337.686 595.532 337.686C595.532 337.686 591.416 334.6 590.387 334.394C589.358 334.188 586.888 335.011 585.448 335.011C584.007 335.011 584.007 334.188 584.007 334.188C584.007 334.188 578.862 336.452 577.833 336.657C577.01 336.863 576.393 336.657 577.01 335.217C577.216 335.011 577.422 334.394 578.039 333.982C577.628 334.6 577.01 335.217 577.422 336.04C577.833 337.069 583.39 334.394 587.506 331.924C587.506 331.924 587.917 331.719 587.917 331.924C587.917 332.13 587.711 332.336 587.711 332.336C587.094 333.159 583.596 333.365 584.213 334.394C585.242 335.834 588.74 333.159 590.593 333.777C592.445 334.394 594.914 336.246 594.914 336.246C594.914 336.246 596.149 332.542 597.795 332.13Z" fill="#EFBBB2"></path>
                <path d="M595.119 337.48C595.119 337.48 615.081 354.972 629.898 356.618C644.921 358.47 670.028 330.072 670.028 330.072C670.028 330.072 668.381 315.05 659.121 316.696C649.86 318.548 637.307 340.978 631.956 342.007C626.605 343.036 598.412 331.101 598.412 331.101C598.412 331.101 597.589 331.718 596.765 333.159C595.737 335.216 595.119 337.48 595.119 337.48Z" fill="#28272A"></path>
                <path d="M653.153 301.882C653.153 301.882 651.918 300.442 652.33 299.619C652.947 298.59 659.121 293.651 666.529 293.857C667.764 293.857 668.999 293.857 670.44 296.944C671.88 300.03 672.086 301.882 672.086 301.882H653.153Z" fill="#242329"></path>
                <path d="M681.141 422.469C680.729 422.675 680.112 422.675 679.7 422.881C673.526 424.115 663.237 424.115 663.237 424.115C643.275 423.704 633.191 405.183 629.898 399.627C628.663 397.775 628.252 396.334 628.252 396.334C629.486 395.717 643.069 388.309 642.246 363.409C642.04 358.265 642.246 346.535 639.57 342.008C638.13 339.538 634.014 334.6 631.339 329.249C629.075 324.928 628.046 320.401 630.515 316.902C636.483 308.259 645.744 303.732 645.744 303.732C645.744 303.732 662.825 296.941 677.23 298.382C686.491 299.411 694.723 303.732 696.781 315.256C702.337 345.094 681.141 422.469 681.141 422.469Z" fill="#28272A"></path>
                <path d="M647.802 356.824C650.271 381.518 633.602 396.952 629.898 399.627C628.663 397.775 628.252 396.335 628.252 396.335C629.486 395.717 642.246 384.605 642.246 363.409C642.246 358.265 642.246 346.535 639.57 342.008C638.13 339.538 634.014 334.6 631.339 329.249L632.368 328.838L639.159 327.603L642.657 330.484C642.863 330.484 646.361 340.773 647.802 356.824Z" fill="#242329"></path>
                <path d="M681.141 422.47C680.73 422.676 680.112 422.676 679.701 422.882C680.936 416.091 689.167 373.906 691.637 358.678C696.782 328.427 691.431 313.199 688.344 307.643C685.875 303.116 681.141 300.852 677.026 298.589C686.286 299.618 694.518 303.939 696.576 315.463C702.338 345.096 681.141 422.47 681.141 422.47Z" fill="#28272A"></path>
                <path d="M582.978 512.807C582.978 512.807 580.92 513.63 578.245 513.63C575.364 513.63 574.54 512.601 574.54 512.601V505.81L584.213 504.576L582.978 512.807Z" fill="#F4C5BE"></path>
                <path d="M658.915 418.971C658.915 423.292 657.68 430.289 651.094 432.141C641.422 435.022 634.219 433.375 622.901 431.523C613.434 429.877 588.533 424.527 584.006 422.88C583.389 422.675 582.771 423.086 582.977 423.704C585.035 434.199 586.887 438.726 588.328 454.571C589.562 467.947 584.417 505.605 584.417 505.605C584.417 505.605 582.771 506.017 581.125 506.428C580.507 506.428 579.89 506.634 579.273 506.634C576.803 506.634 573.922 506.223 573.922 506.223C573.922 506.223 563.838 450.661 562.398 428.231C560.957 405.8 563.221 403.948 573.305 399.215C583.594 394.482 629.28 396.129 629.28 396.129C629.486 396.54 631.956 403.537 639.57 409.916C644.097 413.62 650.477 417.324 658.915 418.971Z" fill="#B1C9DD"></path>
                <path d="M631.134 400.041C629.899 397.778 629.282 396.337 629.282 396.131C629.282 396.131 628.664 396.131 627.841 396.131C628.87 397.366 629.899 398.601 631.134 400.041Z" fill="#33305B"></path>
                <path opacity="0.38" d="M652.742 417.328C651.918 420.621 649.861 423.913 645.745 425.148C636.072 428.029 628.87 426.382 617.551 424.53C608.085 422.884 583.184 417.534 578.656 415.888C578.039 415.682 577.421 416.093 577.627 416.711C579.685 427.206 581.537 431.733 582.978 447.578C583.801 457.867 583.595 491.821 583.184 506.226C584.007 506.02 584.418 505.815 584.418 505.815C584.418 505.815 589.563 468.156 588.328 454.781C586.888 438.935 585.242 434.408 582.978 423.913C582.772 423.296 583.389 422.884 584.007 423.09C588.534 424.736 613.435 430.292 622.902 431.733C634.22 433.585 641.423 435.437 651.095 432.35C657.681 430.292 658.71 423.501 658.915 419.18C656.652 418.563 654.594 417.945 652.742 417.328Z" fill="#61708E"></path>
                <path d="M574.128 511.575C574.128 511.575 576.598 512.604 578.861 512.604C581.537 512.604 583.594 511.575 583.594 511.575C583.594 511.575 588.534 517.749 585.858 524.745C585.652 525.157 585.447 525.363 585.035 525.363H552.314C551.902 525.363 551.491 524.951 551.491 524.745C551.491 523.922 551.902 522.687 553.754 522.07C556.841 521.247 559.928 520.63 562.192 519.807C564.456 518.983 567.954 515.485 569.806 514.868C572.482 514.045 574.128 511.575 574.128 511.575Z" fill="#1A1A47"></path>
                <path d="M559.312 347.772C559.312 347.772 556.431 346.949 554.99 346.743C554.373 346.537 553.756 346.537 553.344 346.537C552.727 346.537 552.109 346.537 551.492 346.537L535.852 348.801C535.44 348.801 535.028 348.595 534.823 348.184C534.823 347.566 535.028 346.949 535.44 346.537L536.881 345.303L541.408 341.393C543.672 339.541 545.524 339.129 548.405 338.923C549.022 338.923 551.286 339.541 551.698 339.541C554.785 340.158 555.402 340.364 557.46 340.775C558.283 340.981 558.9 340.981 559.106 340.981C559.724 340.981 559.724 340.981 559.724 340.981C561.164 344.891 559.312 347.772 559.312 347.772Z" fill="#F4C5BE"></path>
                <path d="M583.183 349.419C582.771 349.213 580.302 348.184 578.861 347.772C578.45 347.567 577.832 347.567 577.421 347.361C576.803 347.155 575.98 347.155 575.363 347.155H559.722C559.311 347.155 558.899 346.743 558.899 346.332C558.899 345.714 559.311 345.097 559.722 344.891L561.369 343.862C559.722 345.097 559.517 345.92 560.34 346.126C560.957 346.126 562.603 346.126 566.308 344.891C566.308 344.891 566.514 345.097 566.308 345.097C565.485 345.714 565.69 346.743 566.925 346.743C567.543 346.743 570.424 346.538 571.041 346.538C573.511 346.332 577.009 346.126 577.832 346.332C579.273 346.538 580.302 346.949 581.331 347.567C581.948 347.978 582.565 347.155 582.977 346.332C583.389 345.303 583.8 343.862 584.418 342.833C585.035 343.039 585.035 342.833 585.035 342.833C585.241 346.332 583.594 349.007 583.183 349.419Z" fill="#F4F4F4"></path>
                <path d="M644.922 311.757C642.864 310.523 636.69 307.024 628.458 319.577C620.432 332.13 613.847 341.596 611.172 343.242C608.29 344.888 601.499 343.654 598.824 343.654C596.149 343.654 559.723 340.773 559.723 340.773C559.723 340.773 557.871 344.477 557.665 347.769C557.665 347.769 591.21 356.618 611.995 356.618C632.78 356.618 648.626 325.339 649.243 321.429C650.272 317.725 649.861 314.638 644.922 311.757Z" fill="#28272A"></path>
                <path d="M643.069 273.482L645.332 280.479C645.332 280.479 646.979 282.125 648.625 280.273C650.271 278.421 651.712 271.836 648.625 270.807C645.538 269.572 643.892 271.013 643.069 273.482Z" fill="#EFBBB2"></path>
                <path d="M724.975 374.109C724.975 338.92 724.152 314.226 701.926 310.522C671.674 305.378 648.008 331.718 652.741 381.929C655.417 410.739 643.686 420.616 633.603 426.173C627.017 429.877 614.464 429.053 614.464 429.053C614.464 429.053 608.702 428.436 604.792 428.025C607.261 429.053 659.121 454.776 695.958 435.844C728.885 418.97 724.975 394.688 724.975 374.109Z" fill="#FED042"></path>
                <path d="M724.975 374.111C724.975 338.922 724.152 314.228 701.926 310.524C700.897 310.318 699.868 310.112 698.839 310.112C674.555 312.582 658.709 338.099 662.825 381.931C665.5 410.74 653.77 420.618 643.686 426.174C637.101 429.878 624.548 429.055 624.548 429.055C624.548 429.055 624.342 429.055 623.724 428.849C618.785 429.261 614.464 429.055 614.464 429.055C614.464 429.055 608.702 428.438 604.792 428.026C607.261 429.055 659.121 454.778 695.958 435.846C728.885 418.972 724.975 394.689 724.975 374.111Z" fill="#F5C057"></path>
                <path fill-rule="evenodd" clip-rule="evenodd" d="M254.522 169.147C251.915 157.199 240.29 149.665 228.557 152.319C216.823 154.973 209.424 166.81 212.031 178.758C214.637 190.705 226.262 198.239 237.996 195.585C239.934 195.147 241.749 194.454 243.425 193.555L251.653 198.888L249.447 188.776C253.987 183.633 256.107 176.412 254.522 169.147Z" stroke="white" stroke-width="2"></path>
                <path d="M236.401 171.923C235.563 171.461 234.673 171.108 233.792 170.742C233.28 170.531 232.791 170.284 232.359 169.94C231.509 169.261 231.672 168.16 232.668 167.723C232.95 167.6 233.245 167.56 233.545 167.543C234.7 167.481 235.797 167.692 236.841 168.195C237.362 168.446 237.533 168.367 237.71 167.825C237.895 167.252 238.049 166.67 238.221 166.093C238.335 165.705 238.194 165.449 237.829 165.286C237.159 164.991 236.471 164.779 235.748 164.665C234.805 164.519 234.805 164.515 234.801 163.567C234.797 162.232 234.797 162.232 233.457 162.232C233.263 162.232 233.069 162.228 232.875 162.232C232.249 162.25 232.143 162.36 232.126 162.99C232.117 163.272 232.126 163.554 232.121 163.841C232.117 164.678 232.113 164.665 231.31 164.956C229.371 165.661 228.173 166.983 228.045 169.098C227.93 170.971 228.909 172.236 230.447 173.157C231.394 173.726 232.443 174.061 233.448 174.506C233.84 174.678 234.215 174.876 234.541 175.149C235.506 175.947 235.33 177.274 234.184 177.776C233.571 178.045 232.923 178.111 232.258 178.027C231.231 177.9 230.248 177.631 229.323 177.15C228.781 176.868 228.622 176.943 228.437 177.529C228.278 178.036 228.137 178.547 227.996 179.059C227.807 179.746 227.877 179.909 228.534 180.231C229.371 180.636 230.266 180.844 231.178 180.989C231.892 181.104 231.914 181.134 231.923 181.875C231.927 182.21 231.927 182.549 231.932 182.884C231.936 183.307 232.139 183.554 232.575 183.563C233.069 183.572 233.567 183.572 234.061 183.558C234.466 183.55 234.673 183.329 234.673 182.919C234.673 182.461 234.695 181.998 234.678 181.54C234.655 181.073 234.858 180.835 235.308 180.711C236.343 180.429 237.225 179.874 237.904 179.045C239.79 176.754 239.071 173.4 236.401 171.923Z" fill="white"></path>
                <path fill-rule="evenodd" clip-rule="evenodd" d="M504.773 168.4C501.911 156.511 509.089 144.663 520.805 141.937C532.523 139.21 544.342 146.638 547.204 158.527C550.067 170.415 542.889 182.264 531.171 184.99C529.237 185.44 527.301 185.608 525.401 185.53L520.32 193.916L517.898 183.854C511.569 181.204 506.514 175.63 504.773 168.4Z" stroke="white" stroke-width="2"></path>
                <path d="M531.516 172.069L531.022 169.825C530.994 169.693 530.923 169.595 530.81 169.529C530.688 169.463 530.566 169.454 530.443 169.501L530.373 169.529L530.203 169.571C530.128 169.59 530.041 169.611 529.942 169.635C529.843 169.658 529.728 169.682 529.596 169.705C529.465 169.729 529.326 169.75 529.18 169.769C529.035 169.787 528.877 169.804 528.708 169.818C528.538 169.832 528.369 169.839 528.2 169.839C527.005 169.839 525.93 169.517 524.975 168.873C524.021 168.228 523.317 167.356 522.866 166.255H528.326C528.43 166.255 528.524 166.22 528.608 166.149C528.693 166.079 528.745 165.992 528.764 165.888L529.102 164.308C529.131 164.167 529.102 164.04 529.018 163.927C528.924 163.814 528.806 163.757 528.665 163.757H522.189C522.16 163.118 522.16 162.624 522.189 162.276H529.074C529.329 162.276 529.479 162.154 529.526 161.909L529.865 160.3C529.893 160.169 529.86 160.047 529.766 159.934C529.682 159.821 529.564 159.764 529.413 159.764H522.81C523.28 158.711 523.985 157.883 524.926 157.281C525.867 156.679 526.93 156.378 528.115 156.378C528.153 156.359 528.292 156.364 528.531 156.392C528.771 156.42 528.908 156.432 528.941 156.427C528.973 156.422 529.096 156.436 529.307 156.469C529.519 156.502 529.625 156.519 529.625 156.519L529.872 156.568C529.942 156.582 529.997 156.594 530.034 156.603L530.091 156.617C530.213 156.655 530.325 156.643 530.429 156.582C530.533 156.521 530.599 156.429 530.627 156.307L531.234 154.063C531.262 153.941 531.248 153.828 531.192 153.725C531.107 153.612 531.013 153.541 530.909 153.513C530.044 153.297 529.131 153.188 528.172 153.188C526.064 153.188 524.181 153.791 522.52 154.995C520.86 156.199 519.715 157.789 519.084 159.764H517.702C517.57 159.764 517.462 159.806 517.377 159.891C517.293 159.975 517.25 160.084 517.25 160.215V161.824C517.25 161.956 517.292 162.064 517.377 162.148C517.462 162.233 517.57 162.275 517.702 162.275H518.647C518.619 162.727 518.614 163.221 518.633 163.757H517.702C517.579 163.757 517.474 163.802 517.384 163.891C517.295 163.98 517.25 164.086 517.25 164.208V165.803C517.25 165.925 517.295 166.031 517.384 166.121C517.474 166.21 517.579 166.254 517.702 166.254H519.042C519.635 168.333 520.754 169.987 522.401 171.214C524.047 172.442 525.971 173.056 528.172 173.056C528.351 173.056 528.532 173.051 528.715 173.041C528.899 173.032 529.07 173.018 529.23 172.999C529.39 172.981 529.548 172.96 529.703 172.936C529.858 172.912 529.999 172.889 530.126 172.865C530.253 172.842 530.373 172.818 530.486 172.795C530.599 172.771 530.7 172.746 530.789 172.717C530.879 172.689 530.954 172.668 531.015 172.654C531.076 172.64 531.126 172.623 531.163 172.605L531.234 172.591C531.337 172.553 531.417 172.485 531.474 172.386C531.53 172.288 531.544 172.182 531.516 172.069Z" fill="white"></path>
                <path fill-rule="evenodd" clip-rule="evenodd" d="M694.884 217.509C697.491 205.562 709.116 198.028 720.849 200.682C732.583 203.336 739.982 215.173 737.375 227.121C734.769 239.068 723.144 246.602 711.41 243.948C709.472 243.51 707.657 242.817 705.981 241.918L697.753 247.25L699.959 237.139C695.419 231.995 693.299 224.775 694.884 217.509Z" stroke="white" stroke-width="2"></path>
                <g clip-path="url(#clip0)">
                    <path d="M721.912 224.954C721.834 224.871 721.733 224.83 721.612 224.83H719.495C719.373 224.83 719.273 224.871 719.194 224.954C719.116 225.037 719.077 225.135 719.077 225.248V227.613H713.668V222.661H717.653C717.766 222.661 717.864 222.62 717.947 222.537C718.029 222.454 718.071 222.356 718.071 222.243V220.531C718.071 220.409 718.029 220.309 717.947 220.231C717.864 220.153 717.766 220.113 717.653 220.113H713.668V217.304C713.668 216.642 713.894 216.107 714.347 215.697C714.8 215.288 715.397 215.083 716.137 215.083C716.529 215.083 716.934 215.162 717.352 215.319C717.77 215.475 718.071 215.615 718.254 215.737C718.437 215.858 718.55 215.941 718.593 215.985C718.68 216.063 718.781 216.094 718.894 216.076C719.007 216.068 719.103 216.015 719.181 215.919L720.527 214.26C720.597 214.173 720.627 214.075 720.618 213.966C720.61 213.857 720.566 213.768 720.488 213.698C719.182 212.61 717.723 212.065 716.111 212.065C714.448 212.065 713.078 212.548 712.002 213.515C710.926 214.482 710.388 215.71 710.388 217.2V220.113H709.147C709.025 220.113 708.925 220.153 708.847 220.231C708.768 220.309 708.729 220.409 708.729 220.531V222.243C708.729 222.356 708.768 222.454 708.847 222.537C708.925 222.619 709.025 222.661 709.147 222.661H710.388V227.665H709.121C709.008 227.665 708.91 227.706 708.827 227.789C708.744 227.872 708.703 227.97 708.703 228.083V230.042C708.703 230.165 708.742 230.265 708.821 230.343C708.899 230.421 708.999 230.461 709.121 230.461H721.612C721.734 230.461 721.834 230.421 721.912 230.343C721.99 230.265 722.029 230.165 722.029 230.042V225.248C722.029 225.135 721.99 225.036 721.912 224.954Z" fill="white"></path>
                </g>
                <path class="cloud2" d="M139.41 465.572C135.704 455.266 125.888 447.868 114.309 447.868C109.04 447.868 104.132 449.412 100.005 452.059C94.7766 438.004 81.2543 428 65.3881 428C50.7639 428 38.143 436.501 32.1531 448.831C29.9094 448.209 27.5455 447.848 25.1015 447.848C13.5223 447.848 3.70612 455.226 0 465.552H139.41V465.572Z" fill="white"></path>
                <defs>
                    <linearGradient id="paint0_linear" x1="440.954" y1="298.252" x2="460.738" y2="381.672" gradientUnits="userSpaceOnUse">
                        <stop stop-color="white"></stop>
                        <stop offset="1" stop-color="#D8D8D8"></stop>
                    </linearGradient>
                    <linearGradient id="paint1_linear" x1="321.082" y1="333.085" x2="321.082" y2="372.803" gradientUnits="userSpaceOnUse">
                        <stop stop-color="white"></stop>
                        <stop offset="1" stop-color="#D8D8D8"></stop>
                    </linearGradient>
                    <clipPath id="clip0">
                        <rect width="18.3956" height="18.3956" fill="white" transform="translate(707.231 212.065)"></rect>
                    </clipPath>
                </defs>
            </svg>
